G04 ================== begin FILE IDENTIFICATION RECORD ==================*
G04 Layout Name:  MY_TEST731_2.brd*
G04 Film Name:    BOTTOM*
G04 File Format:  Gerber RS274X*
G04 File Origin:  Cadence Allegro 17.2-P019*
G04 Origin Date:  Wed Jul 31 17:20:14 2019*
G04 *
G04 Layer:  BOARD GEOMETRY/DESIGN_OUTLINE*
G04 Layer:  ETCH/BOTTOM*
G04 Layer:  PIN/BOTTOM*
G04 Layer:  VIA CLASS/BOTTOM*
G04 *
G04 Offset:    (0.000 0.000)*
G04 Mirror:    No*
G04 Mode:      Positive*
G04 Rotation:  0*
G04 FullContactRelief:  No*
G04 UndefLineWidth:     0.000*
G04 ================== end FILE IDENTIFICATION RECORD ====================*
%FSLAX25Y25*MOMM*%
%IR0*IPPOS*OFA0.00000B0.00000*MIA0B0*SFA1.00000B1.00000*%
%ADD11C,1.524*%
%ADD13C,1.651*%
%ADD12R,1.524X1.524*%
%ADD15C,1.397*%
%ADD14R,1.397X1.397*%
%ADD10C,.635*%
%ADD16C,1.*%
%ADD17C,.5*%
G75*
%LPD*%
G75*
G54D10*
X500000Y500000D03*
Y6500000D03*
X9500000Y500000D03*
Y6500000D03*
G54D11*
X762000Y1524000D03*
Y1778000D03*
Y2032000D03*
Y2286000D03*
Y2540000D03*
Y2794000D03*
Y5334000D03*
X508000D03*
X1524000Y1524000D03*
Y1778000D03*
Y2032000D03*
Y2286000D03*
Y2540000D03*
Y2794000D03*
Y3048000D03*
X2286000Y4826000D03*
Y5080000D03*
Y5334000D03*
X3048000Y4826000D03*
Y5080000D03*
Y5334000D03*
Y5588000D03*
X4826000D03*
X5588000D03*
X5334000D03*
X5080000D03*
X7112000Y2032000D03*
X6858000D03*
X7112000Y2794000D03*
X6858000D03*
X6604000D03*
Y5080000D03*
Y5334000D03*
Y5588000D03*
X7366000Y2032000D03*
Y2794000D03*
Y5080000D03*
Y5334000D03*
Y5588000D03*
Y5842000D03*
X9144000Y2540000D03*
Y2794000D03*
G54D12*
X762000Y3048000D03*
X2286000Y5588000D03*
X6604000Y2032000D03*
Y5842000D03*
G54D13*
X508000Y4889500D03*
X1524000Y4064000D03*
Y4889500D03*
X2540000Y1778000D03*
Y1270000D03*
Y2286000D03*
Y2794000D03*
Y4064000D03*
X3556000Y1778000D03*
Y1270000D03*
Y2286000D03*
Y2794000D03*
X4000500Y5080000D03*
Y6096000D03*
X4318000Y1270000D03*
Y1778000D03*
Y2286000D03*
Y2794000D03*
X4572000Y4572000D03*
Y5080000D03*
X5334000Y1270000D03*
Y1778000D03*
Y2286000D03*
Y2794000D03*
X5588000Y4572000D03*
Y5080000D03*
Y6350000D03*
X6858000Y762000D03*
X6604000Y6350000D03*
X7874000Y762000D03*
X8382000Y1778000D03*
Y2794000D03*
X8128000Y5334000D03*
X8636000D03*
X8128000Y6350000D03*
X8636000D03*
G54D14*
X8128000Y3810000D03*
X8636000D03*
G54D15*
X8128000Y4724400D03*
X8636000D03*
G54D16*
G01X762000Y1778000D02*
X623100D01*
X564200Y1836900D01*
Y2469200D01*
X635000Y2540000D01*
X762000D01*
G01X1524000Y2032000D02*
X1270000Y1778000D01*
X762000D01*
G01Y2032000D02*
X979500D01*
X1079500Y2132000D01*
Y3710000D01*
X1179500Y3810000D01*
X4281500D01*
X4381500Y3910000D01*
Y5234000D01*
X4481500Y5334000D01*
X4980000D01*
X5080000Y5434000D01*
Y5588000D01*
G01X4572000Y4572000D02*
Y2894000D01*
X4672000Y2794000D01*
X5334000D01*
G01X4572000Y4572000D02*
X4717400D01*
X4724700Y4564700D01*
X5263200D01*
X5334000Y4635500D01*
Y5588000D01*
G01X5588000D02*
X6313500D01*
X6413500Y5488000D01*
Y5180000D01*
X6513500Y5080000D01*
X6604000D01*
G01X7366000Y2032000D02*
Y2122500D01*
X7266000Y2222500D01*
X6513500D01*
X6413500Y2322500D01*
Y2857500D01*
X6604000Y3048000D01*
Y5080000D01*
G01X6858000Y2794000D02*
Y3011500D01*
X6958000Y3111500D01*
X7520000D01*
X7620000Y3211500D01*
Y5488000D01*
X7520000Y5588000D01*
X7366000D01*
G01X9144000Y2540000D02*
Y925500D01*
X9044000Y825500D01*
X7937500D01*
X7874000Y762000D01*
G01X8636000Y3810000D02*
Y2640000D01*
X8736000Y2540000D01*
X9144000D01*
G54D17*
G01X1524000Y4889500D02*
Y4064000D01*
G01X2540000D02*
X2857500D01*
X2921000Y4127500D01*
Y5030000D01*
X2971000Y5080000D01*
X3048000D01*
G01X5334000Y1270000D02*
Y1410500D01*
X5284000Y1460500D01*
X4177500D01*
X4127500Y1510500D01*
Y2236000D01*
X4077500Y2286000D01*
X3556000D01*
G01X4318000Y2794000D02*
Y2286000D01*
G01X5588000Y6350000D02*
X5511000D01*
X5461000Y6300000D01*
Y5207000D01*
X5588000Y5080000D01*
G01X6858000Y2032000D02*
Y762000D01*
G01X7366000Y5334000D02*
X7225500D01*
X7175500Y5384000D01*
Y6300000D01*
X7225500Y6350000D01*
X8128000D01*
G01Y5334000D02*
Y4724400D01*
G01X8636000D02*
X8661400Y4699000D01*
X8776500D01*
X8826500Y4749000D01*
Y6300000D01*
X8776500Y6350000D01*
X8636000D01*
M02*
