G04 ================== begin FILE IDENTIFICATION RECORD ==================*
G04 Layout Name:  MY_TEST731_2.brd*
G04 Film Name:    BOTTOM*
G04 File Format:  Gerber RS274X*
G04 File Origin:  Cadence Allegro 17.2-P019*
G04 Origin Date:  Wed Jul 31 16:30:30 2019*
G04 *
G04 Layer:  ETCH/BOTTOM*
G04 Layer:  PIN/BOTTOM*
G04 Layer:  VIA CLASS/BOTTOM*
G04 *
G04 Offset:    (0.000 0.000)*
G04 Mirror:    No*
G04 Mode:      Positive*
G04 Rotation:  0*
G04 FullContactRelief:  No*
G04 UndefLineWidth:     0.000*
G04 ================== end FILE IDENTIFICATION RECORD ====================*
%FSLAX25Y25*MOMM*%
%IR0*IPPOS*OFA0.00000B0.00000*MIA0B0*SFA1.00000B1.00000*%
%ADD11C,1.524*%
%ADD13C,1.651*%
%ADD12R,1.524X1.524*%
%ADD16C,1.397*%
%ADD15R,1.397X1.397*%
%ADD14C,.61*%
%ADD10C,.635*%
%ADD17C,1.*%
%ADD18C,.5*%
%ADD19C,2.29*%
%ADD20C,2.418*%
G75*
%LPD*%
G75*
G36*
G01X754200Y500000D02*
Y754200D01*
X500000D01*
Y4758400D01*
G02X510000Y4768600I10191J10D01*
G03Y5010400I-2000J120900D01*
G02X500000Y5020600I191J10190D01*
G01Y5209300D01*
G02X510000Y5219500I10191J11D01*
G03Y5448500I-2000J114500D01*
G02X500000Y5458700I191J10189D01*
G01Y6245800D01*
X754200D01*
Y6500000D01*
X9245800D01*
Y6245800D01*
X9500000D01*
Y754200D01*
X9245800D01*
Y500000D01*
X754200D01*
G37*
%LPC*%
G75*
G36*
G01X8527800Y3740200D02*
Y3879800D01*
G02X8566200Y3918200I38350J50D01*
G01X8705800D01*
G02X8744200Y3879800I50J-38350D01*
G01Y3740200D01*
G02X8705800Y3701800I-38350J-50D01*
G01X8566200D01*
G02X8527800Y3740200I-50J38350D01*
G37*
G36*
G01X8019800D02*
Y3879800D01*
G02X8058200Y3918200I38350J50D01*
G01X8197800D01*
G02X8236200Y3879800I50J-38350D01*
G01Y3740200D01*
G02X8197800Y3701800I-38350J-50D01*
G01X8058200D01*
G02X8019800Y3740200I-50J38350D01*
G37*
G36*
G01X6489500Y5765800D02*
Y5918200D01*
G02X6527800Y5956500I38300J0D01*
G01X6680200D01*
G02X6718500Y5918200I0J-38300D01*
G01Y5765800D01*
G02X6680200Y5727500I-38300J0D01*
G01X6527800D01*
G02X6489500Y5765800I0J38300D01*
G37*
G36*
G01X2171500Y5511800D02*
Y5664200D01*
G02X2209800Y5702500I38300J0D01*
G01X2362200D01*
G02X2400500Y5664200I0J-38300D01*
G01Y5511800D01*
G02X2362200Y5473500I-38300J0D01*
G01X2209800D01*
G02X2171500Y5511800I0J38300D01*
G37*
G36*
G01X647500Y2971800D02*
Y3124200D01*
G02X685800Y3162500I38300J0D01*
G01X838200D01*
G02X876500Y3124200I0J-38300D01*
G01Y2971800D01*
G02X838200Y2933500I-38300J0D01*
G01X685800D01*
G02X647500Y2971800I0J38300D01*
G37*
G36*
G01X8808000Y6426000D02*
X8902500Y6331500D01*
Y4717500D01*
X8808000Y4623000D01*
X8673800D01*
G02X8730200Y4777600I-37807J101380D01*
G01X8731700Y4775000D01*
X8745000D01*
X8750500Y4780500D01*
Y5254600D01*
G03X8732200Y5260800I-10203J-7D01*
G02Y5407200I-96200J73200D01*
G03X8750500Y5413400I8097J6207D01*
G01Y6268500D01*
X8745000Y6274000D01*
X8730100D01*
X8728500Y6272200D01*
G02X8730000Y6426000I-92511J77810D01*
G01X8808000D01*
G37*
G36*
G01X8204000Y5240000D02*
Y4801400D01*
G02X8052000I-76000J-77000D01*
G01Y5240000D01*
G02X8204000I76000J94000D01*
G37*
G36*
G01X2889000Y3988000D02*
X2634000D01*
G02Y4140000I-94000J76000D01*
G01X2826000D01*
X2845000Y4159000D01*
Y5061500D01*
X2939500Y5156000D01*
X2962300D01*
X2963800Y5157600D01*
G02X3010500Y4971800I84196J-77607D01*
G03X2997000Y4962200I-3308J-9640D01*
G01Y4943800D01*
G03X3010500Y4934200I10192J40D01*
G02Y4717800I37500J-108200D01*
G03X2997000Y4708200I-3308J-9640D01*
G01Y4096000D01*
X2889000Y3988000D01*
G37*
G36*
G01X1600000Y4795500D02*
Y4158000D01*
G02X1448000I-76000J-94000D01*
G01Y4795500D01*
G02X1600000I76000J94000D01*
G37*
G36*
G01X4180200Y2290700D02*
G03X4197600Y2297000I7226J7220D01*
G02X4242000Y2380000I120390J-11026D01*
G01Y2700000D01*
G02X4394000I76000J94000D01*
G01Y2380000D01*
G02X4221800Y2212800I-75965J-94038D01*
G03X4203500Y2206600I-8097J-6207D01*
G01Y1857400D01*
G03X4221800Y1851200I10203J7D01*
G02Y1704800I96200J-73200D01*
G03X4203500Y1698600I-8097J-6207D01*
G01Y1542000D01*
X4209000Y1536500D01*
X5315500D01*
X5410000Y1442000D01*
Y1364000D01*
G02X5256200Y1362500I-75990J-94011D01*
G01X5258000Y1364100D01*
Y1379000D01*
X5252500Y1384500D01*
X4397400D01*
G03X4391200Y1366200I7J-10203D01*
G02X4244800I-73200J-96200D01*
G03X4238600Y1384500I-6207J8097D01*
G01X4146000D01*
X4051500Y1479000D01*
Y2204500D01*
X4046000Y2210000D01*
X3650000D01*
G02Y2362000I-94000J76000D01*
G01X4109000D01*
X4180200Y2290700D01*
G37*
G36*
G01X5385000Y5705800D02*
Y6254500D01*
X5467800Y6337200D01*
X5467500Y6339600D01*
G02X5577600Y6229500I120500J10400D01*
G01X5575200Y6229800D01*
X5537000Y6191500D01*
Y5705800D01*
G03X5550500Y5696200I10192J40D01*
G02X5641900Y5689000I37460J-108198D01*
G01X6355300D01*
X6472400Y5571900D01*
G03X6489800Y5579900I7220J7218D01*
G02X6531200Y5499600I114217J8064D01*
G03X6514500Y5491800I-6509J-7841D01*
G01Y5430200D01*
G03X6531200Y5422400I10191J41D01*
G02Y5245600I72800J-88400D01*
G03X6514500Y5237800I-6509J-7841D01*
G01Y5221800D01*
X6553500Y5182800D01*
G02X6705000Y5026100I50488J-102774D01*
G01Y3006200D01*
X6622100Y2923300D01*
G03X6627300Y2906100I7236J-7198D01*
G02X6531200Y2705600I-23314J-112106D01*
G03X6514500Y2697800I-6509J-7841D01*
G01Y2364300D01*
X6555300Y2323500D01*
X7307800D01*
X7467000Y2164300D01*
Y2085900D01*
G02X7261700Y2079300I-101023J-53898D01*
G01X7263200Y2082500D01*
X7224200Y2121500D01*
X7208200D01*
G03X7200400Y2104800I41J-10191D01*
G02X7023600I-88400J-72800D01*
G03X7015800Y2121500I-7841J6509D01*
G01X6954200D01*
G03X6946400Y2104800I41J-10191D01*
G02X6934000Y1946400I-88400J-72765D01*
G01Y856000D01*
G02X6782000I-76000J-94000D01*
G01Y1946400D01*
G02X6769600Y2104800I76000J85635D01*
G03X6761800Y2121500I-7841J6509D01*
G01X6728600D01*
G03X6718400Y2110700I-14J-10203D01*
G02X6718500Y2108200I-38189J-2780D01*
G01Y1955800D01*
G02X6680200Y1917500I-38300J0D01*
G01X6527800D01*
G02X6489500Y1955800I0J38300D01*
G01Y2108200D01*
G02X6489600Y2110700I38289J-280D01*
G03X6479400Y2121500I-10186J597D01*
G01X6471700D01*
X6312500Y2280700D01*
Y2899300D01*
X6503000Y3089800D01*
Y4979000D01*
X6471700D01*
X6312500Y5138200D01*
Y5446200D01*
X6271700Y5487000D01*
X5641900D01*
G02X5550500Y5479800I-53940J100998D01*
G03X5537000Y5470200I-3308J-9640D01*
G01Y5238500D01*
X5575200Y5200200D01*
X5577600Y5200500D01*
G02X5467500Y5090400I10400J-120500D01*
G01X5467800Y5092800D01*
X5385000Y5175500D01*
Y5470200D01*
G03X5371500Y5479800I-10192J-40D01*
G02Y5696200I-37500J108200D01*
G03X5385000Y5705800I3308J9640D01*
G37*
G36*
G01X6959000Y2847900D02*
G02X6757000I-101000J-53900D01*
G01Y3053300D01*
X6916200Y3212500D01*
X7478200D01*
X7519000Y3253300D01*
Y5446200D01*
X7478200Y5487000D01*
X7420000D01*
X7418800Y5486400D01*
G02X7270200Y5525200I-52838J101598D01*
G03X7251500Y5519700I-8520J-5573D01*
G01Y5415500D01*
X7257000Y5410000D01*
X7280300D01*
X7281800Y5411600D01*
G02X7280400Y5258000I84206J-77574D01*
G01X7194000D01*
X7099500Y5352500D01*
Y6078000D01*
X7094000Y6083500D01*
X6622500D01*
X6528000Y6178000D01*
Y6256000D01*
G02X6681800Y6257500I75990J94011D01*
G01X6680000Y6255900D01*
Y6241000D01*
X6685500Y6235500D01*
X7157000D01*
X7251500Y6141000D01*
Y5910300D01*
G03X7270200Y5904800I10180J73D01*
G02Y5779200I95800J-62800D01*
G03X7251500Y5773700I-8520J-5573D01*
G01Y5656300D01*
G03X7270200Y5650800I10180J73D01*
G02X7419900Y5689000I95750J-62805D01*
G01X7561800D01*
X7721000Y5529800D01*
Y3169700D01*
X7561800Y3010500D01*
X6999800D01*
X6959000Y2969700D01*
Y2847900D01*
G37*
G54D19*
X762000Y1524000D03*
Y1778000D03*
Y2032000D03*
Y2286000D03*
Y2540000D03*
Y2794000D03*
Y5334000D03*
X1524000Y1524000D03*
Y1778000D03*
Y2032000D03*
Y2286000D03*
Y2540000D03*
Y2794000D03*
Y3048000D03*
X2286000Y4826000D03*
Y5080000D03*
Y5334000D03*
X3048000D03*
Y5588000D03*
X4826000D03*
X5080000D03*
X7112000Y2794000D03*
X7366000D03*
Y5080000D03*
X9144000Y2540000D03*
Y2794000D03*
G54D20*
X2540000Y1778000D03*
Y1270000D03*
Y2286000D03*
Y2794000D03*
X3556000Y1778000D03*
Y1270000D03*
Y2794000D03*
X4000500Y5080000D03*
Y6096000D03*
X4572000Y4572000D03*
Y5080000D03*
X5334000Y1778000D03*
Y2286000D03*
Y2794000D03*
X5588000Y4572000D03*
X7874000Y762000D03*
X8382000Y1778000D03*
Y2794000D03*
X8128000Y6350000D03*
%LPD*%
G75*
G54D10*
X500000Y500000D03*
Y6500000D03*
X9500000Y500000D03*
Y6500000D03*
G54D11*
X762000Y1524000D03*
Y1778000D03*
Y2032000D03*
Y2286000D03*
Y2540000D03*
Y2794000D03*
Y5334000D03*
X508000D03*
X1524000Y1524000D03*
Y1778000D03*
Y2032000D03*
Y2286000D03*
Y2540000D03*
Y2794000D03*
Y3048000D03*
X2286000Y4826000D03*
Y5080000D03*
Y5334000D03*
X3048000Y4826000D03*
Y5080000D03*
Y5334000D03*
Y5588000D03*
X4826000D03*
X5588000D03*
X5334000D03*
X5080000D03*
X7112000Y2032000D03*
X6858000D03*
X7112000Y2794000D03*
X6858000D03*
X6604000D03*
Y5080000D03*
Y5334000D03*
Y5588000D03*
X7366000Y2032000D03*
Y2794000D03*
Y5080000D03*
Y5334000D03*
Y5588000D03*
Y5842000D03*
X9144000Y2540000D03*
Y2794000D03*
G54D12*
X762000Y3048000D03*
X2286000Y5588000D03*
X6604000Y2032000D03*
Y5842000D03*
G54D13*
X508000Y4889500D03*
X1524000Y4064000D03*
Y4889500D03*
X2540000Y1778000D03*
Y1270000D03*
Y2286000D03*
Y2794000D03*
Y4064000D03*
X3556000Y1778000D03*
Y1270000D03*
Y2286000D03*
Y2794000D03*
X4000500Y5080000D03*
Y6096000D03*
X4318000Y1270000D03*
Y1778000D03*
Y2286000D03*
Y2794000D03*
X4572000Y4572000D03*
Y5080000D03*
X5334000Y1270000D03*
Y1778000D03*
Y2286000D03*
Y2794000D03*
X5588000Y4572000D03*
Y5080000D03*
Y6350000D03*
X6858000Y762000D03*
X6604000Y6350000D03*
X7874000Y762000D03*
X8382000Y1778000D03*
Y2794000D03*
X8128000Y5334000D03*
X8636000D03*
X8128000Y6350000D03*
X8636000D03*
G54D14*
X1524000Y3048000D03*
X2286000Y4826000D03*
X4318000Y2794000D03*
X5334000Y1270000D03*
X5588000Y5588000D03*
Y5080000D03*
Y6350000D03*
X6604000Y5080000D03*
X6540500D03*
X6604000Y6350000D03*
X8128000Y5334000D03*
G54D15*
Y3810000D03*
X8636000D03*
G54D16*
X8128000Y4724400D03*
X8636000D03*
G54D17*
G01X6540500Y5080000D02*
X6513500D01*
X6413500Y5180000D01*
Y5488000D01*
X6313500Y5588000D01*
X5588000D01*
G01X7366000Y2032000D02*
Y2122500D01*
X7266000Y2222500D01*
X6513500D01*
X6413500Y2322500D01*
Y2857500D01*
X6604000Y3048000D01*
Y5080000D01*
G01X6858000Y2794000D02*
Y3011500D01*
X6958000Y3111500D01*
X7520000D01*
X7620000Y3211500D01*
Y5488000D01*
X7520000Y5588000D01*
X7366000D01*
G01X6604000Y5080000D02*
X6540500D01*
G54D18*
G01X762000Y1524000D02*
X881600D01*
G01X642400D02*
X762000D01*
G01D02*
Y1643600D01*
G01Y1404400D02*
Y1524000D01*
G01Y1778000D02*
X881600D01*
G01X642400D02*
X762000D01*
G01D02*
Y1897600D01*
G01Y1658400D02*
Y1778000D01*
G01Y2540000D02*
X881600D01*
G01X642400D02*
X762000D01*
G01D02*
Y2659600D01*
G01Y2420400D02*
Y2540000D01*
G01Y2794000D02*
X881600D01*
G01X642400D02*
X762000D01*
G01D02*
Y2913600D01*
G01Y2674400D02*
Y2794000D01*
G01X508000Y4889500D02*
X634000D01*
G01X508000D02*
Y5015500D01*
G01Y4763500D02*
Y4889500D01*
G01Y5334000D02*
X627600D01*
G01X508000D02*
Y5453600D01*
G01Y5214400D02*
Y5334000D01*
G01X1524000Y2032000D02*
X1643600D01*
G01X1404400D02*
X1524000D01*
G01D02*
Y2151600D01*
G01Y1912400D02*
Y2032000D01*
G01Y4889500D02*
Y4064000D01*
G01X2540000D02*
X2857500D01*
X2921000Y4127500D01*
Y5030000D01*
X2971000Y5080000D01*
X3048000D01*
G01X5334000Y1270000D02*
Y1410500D01*
X5284000Y1460500D01*
X4177500D01*
X4127500Y1510500D01*
Y2236000D01*
X4077500Y2286000D01*
X3556000D01*
G01X4318000Y2794000D02*
Y2286000D01*
G01X4572000Y4572000D02*
X4698000D01*
G01X4446000D02*
X4572000D01*
G01D02*
Y4698000D01*
G01Y4446000D02*
Y4572000D01*
G01X5334000Y2794000D02*
X5460000D01*
G01X5208000D02*
X5334000D01*
G01D02*
Y2920000D01*
G01Y2668000D02*
Y2794000D01*
G01X5214400Y5588000D02*
X5334000D01*
G01D02*
Y5707600D01*
G01Y5468400D02*
Y5588000D01*
G01X5588000Y5080000D02*
X5461000Y5207000D01*
Y6223000D01*
X5588000Y6350000D01*
G01X6858000Y2032000D02*
Y762000D01*
G01X7366000Y5334000D02*
X7225500D01*
X7175500Y5384000D01*
Y6109500D01*
X7125500Y6159500D01*
X6654000D01*
X6604000Y6209500D01*
Y6350000D01*
G01X7874000Y762000D02*
X8000000D01*
G01X7748000D02*
X7874000D01*
G01D02*
Y888000D01*
G01Y636000D02*
Y762000D01*
G01X8128000Y3810000D02*
X8241300D01*
G01X8014700D02*
X8128000D01*
G01D02*
Y3923300D01*
G01Y3696700D02*
Y3810000D01*
G01X8636000D02*
X8749300D01*
G01X8522700D02*
X8636000D01*
G01D02*
Y3923300D01*
G01Y3696700D02*
Y3810000D01*
G01X8128000Y5334000D02*
Y4724400D01*
G01X8636000D02*
X8661400Y4699000D01*
X8776500D01*
X8826500Y4749000D01*
Y6300000D01*
X8776500Y6350000D01*
X8636000D01*
G01X9144000Y2540000D02*
X9263600D01*
G01X9024400D02*
X9144000D01*
G01D02*
Y2659600D01*
G01Y2420400D02*
Y2540000D01*
M02*
