G04 ================== begin FILE IDENTIFICATION RECORD ==================*
G04 Layout Name:  MY_TEST731_2.brd*
G04 Film Name:    Design*
G04 File Format:  Gerber RS274X*
G04 File Origin:  Cadence Allegro 17.2-P019*
G04 Origin Date:  Wed Jul 31 17:20:14 2019*
G04 *
G04 Layer:  VIA CLASS/BOTTOM*
G04 Layer:  VIA CLASS/TOP*
G04 Layer:  ROUTE KEEPIN/ALL*
G04 Layer:  REF DES/SILKSCREEN_TOP*
G04 Layer:  REF DES/SILKSCREEN_BOTTOM*
G04 Layer:  PIN/BOTTOM*
G04 Layer:  PIN/TOP*
G04 Layer:  PACKAGE KEEPIN/ALL*
G04 Layer:  PACKAGE GEOMETRY/PIN_NUMBER*
G04 Layer:  PACKAGE GEOMETRY/SILKSCREEN_TOP*
G04 Layer:  PACKAGE GEOMETRY/SILKSCREEN_BOTTOM*
G04 Layer:  PACKAGE GEOMETRY/SOLDERMASK_TOP*
G04 Layer:  PACKAGE GEOMETRY/SOLDERMASK_BOTTOM*
G04 Layer:  PACKAGE GEOMETRY/PASTEMASK_TOP*
G04 Layer:  PACKAGE GEOMETRY/PASTEMASK_BOTTOM*
G04 Layer:  MANUFACTURING/NCLEGEND-1-2*
G04 Layer:  ETCH/BOTTOM*
G04 Layer:  ETCH/TOP*
G04 Layer:  BOARD GEOMETRY/OUTLINE*
G04 Layer:  BOARD GEOMETRY/SILKSCREEN_TOP*
G04 Layer:  BOARD GEOMETRY/SILKSCREEN_BOTTOM*
G04 Layer:  BOARD GEOMETRY/SOLDERMASK_TOP*
G04 Layer:  BOARD GEOMETRY/SOLDERMASK_BOTTOM*
G04 Layer:  BOARD GEOMETRY/DESIGN_OUTLINE*
G04 *
G04 Offset:    (0.000 0.000)*
G04 Mirror:    No*
G04 Mode:      Positive*
G04 Rotation:  0*
G04 FullContactRelief:  No*
G04 UndefLineWidth:     0.000*
G04 ================== end FILE IDENTIFICATION RECORD ====================*
%FSLAX25Y25*MOMM*%
%IR0*IPPOS*OFA0.00000B0.00000*MIA0B0*SFA1.00000B1.00000*%
%ADD12C,1.524*%
%ADD15C,1.651*%
%AMMACRO18*
1,1,0.0,.635,0.0*
20,1,0.0,.635,0.0,.625353,-.110267,0.0*
1,1,0.0,.625353,-.110267*
20,1,0.0,.625353,-.110267,.596705,-.217183,0.0*
1,1,0.0,.596705,-.217183*
20,1,0.0,.596705,-.217183,.549926,-.3175,0.0*
1,1,0.0,.549926,-.3175*
20,1,0.0,.549926,-.3175,.486438,-.40817,0.0*
1,1,0.0,.486438,-.40817*
20,1,0.0,.486438,-.40817,.40817,-.486438,0.0*
1,1,0.0,.40817,-.486438*
20,1,0.0,.40817,-.486438,.3175,-.549926,0.0*
1,1,0.0,.3175,-.549926*
20,1,0.0,.3175,-.549926,.217183,-.596705,0.0*
1,1,0.0,.217183,-.596705*
20,1,0.0,.217183,-.596705,.110267,-.625353,0.0*
1,1,0.0,.110267,-.625353*
20,1,0.0,.110267,-.625353,0.0,-.635,0.0*
1,1,0.0,0.0,-.635*
20,1,0.0,0.0,-.635,-.110267,-.625353,0.0*
1,1,0.0,-.110267,-.625353*
20,1,0.0,-.110267,-.625353,-.217183,-.596705,0.0*
1,1,0.0,-.217183,-.596705*
20,1,0.0,-.217183,-.596705,-.3175,-.549926,0.0*
1,1,0.0,-.3175,-.549926*
20,1,0.0,-.3175,-.549926,-.40817,-.486438,0.0*
1,1,0.0,-.40817,-.486438*
20,1,0.0,-.40817,-.486438,-.486438,-.40817,0.0*
1,1,0.0,-.486438,-.40817*
20,1,0.0,-.486438,-.40817,-.549926,-.3175,0.0*
1,1,0.0,-.549926,-.3175*
20,1,0.0,-.549926,-.3175,-.596705,-.217183,0.0*
1,1,0.0,-.596705,-.217183*
20,1,0.0,-.596705,-.217183,-.625353,-.110267,0.0*
1,1,0.0,-.625353,-.110267*
20,1,0.0,-.625353,-.110267,-.635,0.0,0.0*
1,1,0.0,-.635,0.0*
20,1,0.0,-.635,0.0,-.625353,.110267,0.0*
1,1,0.0,-.625353,.110267*
20,1,0.0,-.625353,.110267,-.596705,.217183,0.0*
1,1,0.0,-.596705,.217183*
20,1,0.0,-.596705,.217183,-.549926,.3175,0.0*
1,1,0.0,-.549926,.3175*
20,1,0.0,-.549926,.3175,-.486438,.40817,0.0*
1,1,0.0,-.486438,.40817*
20,1,0.0,-.486438,.40817,-.40817,.486438,0.0*
1,1,0.0,-.40817,.486438*
20,1,0.0,-.40817,.486438,-.3175,.549926,0.0*
1,1,0.0,-.3175,.549926*
20,1,0.0,-.3175,.549926,-.217183,.596705,0.0*
1,1,0.0,-.217183,.596705*
20,1,0.0,-.217183,.596705,-.110267,.625353,0.0*
1,1,0.0,-.110267,.625353*
20,1,0.0,-.110267,.625353,0.0,.635,0.0*
1,1,0.0,0.0,.635*
20,1,0.0,0.0,.635,.110267,.625353,0.0*
1,1,0.0,.110267,.625353*
20,1,0.0,.110267,.625353,.217183,.596705,0.0*
1,1,0.0,.217183,.596705*
20,1,0.0,.217183,.596705,.3175,.549926,0.0*
1,1,0.0,.3175,.549926*
20,1,0.0,.3175,.549926,.40817,.486438,0.0*
1,1,0.0,.40817,.486438*
20,1,0.0,.40817,.486438,.486438,.40817,0.0*
1,1,0.0,.486438,.40817*
20,1,0.0,.486438,.40817,.549926,.3175,0.0*
1,1,0.0,.549926,.3175*
20,1,0.0,.549926,.3175,.596705,.217183,0.0*
1,1,0.0,.596705,.217183*
20,1,0.0,.596705,.217183,.625353,.110267,0.0*
1,1,0.0,.625353,.110267*
20,1,0.0,.625353,.110267,.635,0.0,0.0*
1,1,0.0,.635,0.0*
1,1,0.0,.3175,0.0*
20,1,0.0,.3175,0.0,-.3175,0.0,0.0*
1,1,0.0,-.3175,0.0*
1,1,0.0,0.0,.3175*
20,1,0.0,0.0,.3175,0.0,-.3175,0.0*
1,1,0.0,0.0,-.3175*
%
%ADD18MACRO18*%
%ADD14R,1.524X1.524*%
%ADD20C,1.397*%
%AMMACRO17*
1,1,0.0,.3175,0.0*
20,1,0.0,.3175,0.0,-.3175,0.0,0.0*
1,1,0.0,-.3175,0.0*
1,1,0.0,0.0,.3175*
20,1,0.0,0.0,.3175,0.0,-.3175,0.0*
1,1,0.0,0.0,-.3175*
%
%ADD17MACRO17*%
%ADD19R,1.397X1.397*%
%AMMACRO16*
1,1,0.0,-.508,.3175*
20,1,0.0,-.508,.3175,-.500282,.405713,0.0*
1,1,0.0,-.500282,.405713*
20,1,0.0,-.500282,.405713,-.477364,.491246,0.0*
1,1,0.0,-.477364,.491246*
20,1,0.0,-.477364,.491246,-.439941,.5715,0.0*
1,1,0.0,-.439941,.5715*
20,1,0.0,-.439941,.5715,-.389151,.644036,0.0*
1,1,0.0,-.389151,.644036*
20,1,0.0,-.389151,.644036,-.326536,.706651,0.0*
1,1,0.0,-.326536,.706651*
20,1,0.0,-.326536,.706651,-.254,.757441,0.0*
1,1,0.0,-.254,.757441*
20,1,0.0,-.254,.757441,-.173746,.794864,0.0*
1,1,0.0,-.173746,.794864*
20,1,0.0,-.173746,.794864,-.088213,.817782,0.0*
1,1,0.0,-.088213,.817782*
20,1,0.0,-.088213,.817782,0.0,.8255,0.0*
1,1,0.0,0.0,.8255*
20,1,0.0,0.0,.8255,.088213,.817782,0.0*
1,1,0.0,.088213,.817782*
20,1,0.0,.088213,.817782,.173746,.794864,0.0*
1,1,0.0,.173746,.794864*
20,1,0.0,.173746,.794864,.254,.757441,0.0*
1,1,0.0,.254,.757441*
20,1,0.0,.254,.757441,.326536,.706651,0.0*
1,1,0.0,.326536,.706651*
20,1,0.0,.326536,.706651,.389151,.644036,0.0*
1,1,0.0,.389151,.644036*
20,1,0.0,.389151,.644036,.439941,.5715,0.0*
1,1,0.0,.439941,.5715*
20,1,0.0,.439941,.5715,.477364,.491246,0.0*
1,1,0.0,.477364,.491246*
20,1,0.0,.477364,.491246,.500282,.405713,0.0*
1,1,0.0,.500282,.405713*
20,1,0.0,.500282,.405713,.508,.3175,0.0*
1,1,0.0,.508,.3175*
20,1,0.0,.508,.3175,.508,-.3175,0.0*
1,1,0.0,.508,-.3175*
20,1,0.0,.508,-.3175,.500282,-.405713,0.0*
1,1,0.0,.500282,-.405713*
20,1,0.0,.500282,-.405713,.477364,-.491246,0.0*
1,1,0.0,.477364,-.491246*
20,1,0.0,.477364,-.491246,.439941,-.5715,0.0*
1,1,0.0,.439941,-.5715*
20,1,0.0,.439941,-.5715,.389151,-.644036,0.0*
1,1,0.0,.389151,-.644036*
20,1,0.0,.389151,-.644036,.326536,-.706651,0.0*
1,1,0.0,.326536,-.706651*
20,1,0.0,.326536,-.706651,.254,-.757441,0.0*
1,1,0.0,.254,-.757441*
20,1,0.0,.254,-.757441,.173746,-.794864,0.0*
1,1,0.0,.173746,-.794864*
20,1,0.0,.173746,-.794864,.088213,-.817782,0.0*
1,1,0.0,.088213,-.817782*
20,1,0.0,.088213,-.817782,0.0,-.8255,0.0*
1,1,0.0,0.0,-.8255*
20,1,0.0,0.0,-.8255,-.088213,-.817782,0.0*
1,1,0.0,-.088213,-.817782*
20,1,0.0,-.088213,-.817782,-.173746,-.794864,0.0*
1,1,0.0,-.173746,-.794864*
20,1,0.0,-.173746,-.794864,-.254,-.757441,0.0*
1,1,0.0,-.254,-.757441*
20,1,0.0,-.254,-.757441,-.326536,-.706651,0.0*
1,1,0.0,-.326536,-.706651*
20,1,0.0,-.326536,-.706651,-.389151,-.644036,0.0*
1,1,0.0,-.389151,-.644036*
20,1,0.0,-.389151,-.644036,-.439941,-.5715,0.0*
1,1,0.0,-.439941,-.5715*
20,1,0.0,-.439941,-.5715,-.477364,-.491246,0.0*
1,1,0.0,-.477364,-.491246*
20,1,0.0,-.477364,-.491246,-.500282,-.405713,0.0*
1,1,0.0,-.500282,-.405713*
20,1,0.0,-.500282,-.405713,-.508,-.3175,0.0*
1,1,0.0,-.508,-.3175*
20,1,0.0,-.508,-.3175,-.508,.3175,0.0*
1,1,0.0,-.508,.3175*
%
%ADD16MACRO16*%
%AMMACRO13*
1,1,0.0,.635,0.0*
20,1,0.0,.635,0.0,.3175,.549926,0.0*
1,1,0.0,.3175,.549926*
20,1,0.0,.3175,.549926,-.3175,.549926,0.0*
1,1,0.0,-.3175,.549926*
20,1,0.0,-.3175,.549926,-.635,0.0,0.0*
1,1,0.0,-.635,0.0*
20,1,0.0,-.635,0.0,-.3175,-.549926,0.0*
1,1,0.0,-.3175,-.549926*
20,1,0.0,-.3175,-.549926,.3175,-.549926,0.0*
1,1,0.0,.3175,-.549926*
20,1,0.0,.3175,-.549926,.635,0.0,0.0*
1,1,0.0,.635,0.0*
%
%ADD13MACRO13*%
%ADD10C,.635*%
%AMMACRO11*
1,1,0.0,-.666,-.952*
20,1,0.0,-.666,-.952,.667,.953,0.0*
1,1,0.0,.667,.953*
1,1,0.0,-.666,.953*
20,1,0.0,-.666,.953,.667,-.952,0.0*
1,1,0.0,.667,-.952*
%
%ADD11MACRO11*%
%ADD21C,1.*%
%ADD22C,.5*%
G75*
%LPD*%
G75*
G54D10*
X500000Y500000D03*
D03*
Y6500000D03*
D03*
X9500000Y500000D03*
D03*
Y6500000D03*
D03*
G54D11*
X500000Y500000D03*
Y6500000D03*
X1395500Y10208500D03*
X9500000Y500000D03*
Y6500000D03*
G54D20*
X8128000Y4724400D03*
D03*
X8636000D03*
D03*
G54D21*
G01X762000Y1778000D02*
Y1524000D01*
G01Y1778000D02*
X623100D01*
X564200Y1836900D01*
Y2469200D01*
X635000Y2540000D01*
X762000D01*
G01X1524000Y2032000D02*
X1270000Y1778000D01*
X762000D01*
G01Y2032000D02*
X979500D01*
X1079500Y2132000D01*
Y3710000D01*
X1179500Y3810000D01*
X4281500D01*
X4381500Y3910000D01*
Y5234000D01*
X4481500Y5334000D01*
X4980000D01*
X5080000Y5434000D01*
Y5588000D01*
G01X762000Y2794000D02*
Y2540000D01*
G01Y2794000D02*
X571500D01*
X508000Y2857500D01*
Y4889500D01*
G01Y5334000D02*
Y4889500D01*
G01X4572000Y4572000D02*
X4469100Y4469100D01*
X1536400D01*
X1333500Y4672000D01*
Y4789500D01*
X1233500Y4889500D01*
X508000D01*
G01X5588000Y5588000D02*
Y5424500D01*
X5397500Y5234000D01*
Y5022000D01*
X5297500Y4922000D01*
X4568000D01*
X4281500Y4635500D01*
X2476500D01*
X2286000Y4826000D01*
G01X4826000Y5588000D02*
X3302000D01*
X3048000Y5334000D01*
G01X4572000Y4572000D02*
Y2894000D01*
X4672000Y2794000D01*
X5334000D01*
G01X4572000Y4572000D02*
X4717400D01*
X4724700Y4564700D01*
X5263200D01*
X5334000Y4635500D01*
Y5588000D01*
G01X7366000D02*
X7520000D01*
X7620000Y5688000D01*
Y5996000D01*
X7520000Y6096000D01*
X4926000D01*
X4826000Y5996000D01*
Y5588000D01*
G01X5334000Y2794000D02*
Y3583000D01*
X5434000Y3683000D01*
X8001000D01*
X8128000Y3810000D01*
G01X5588000Y5588000D02*
X6313500D01*
X6413500Y5488000D01*
Y5180000D01*
X6513500Y5080000D01*
X6604000D01*
G01X7366000Y2032000D02*
Y2122500D01*
X7266000Y2222500D01*
X6513500D01*
X6413500Y2322500D01*
Y2857500D01*
X6604000Y3048000D01*
Y5080000D01*
G01X6858000Y2794000D02*
Y3011500D01*
X6958000Y3111500D01*
X7520000D01*
X7620000Y3211500D01*
Y5488000D01*
X7520000Y5588000D01*
X7366000D01*
G01X6604000Y5080000D02*
X6540500D01*
G01X9144000Y2540000D02*
Y925500D01*
X9044000Y825500D01*
X7937500D01*
X7874000Y762000D01*
G01X8636000Y3810000D02*
Y2640000D01*
X8736000Y2540000D01*
X9144000D01*
G01X8128000Y3810000D02*
X8636000D01*
G54D12*
X762000Y1524000D03*
D03*
Y1778000D03*
D03*
Y2032000D03*
D03*
Y2286000D03*
D03*
Y2540000D03*
D03*
Y2794000D03*
D03*
Y5334000D03*
D03*
X508000D03*
D03*
X1524000Y1524000D03*
D03*
Y1778000D03*
D03*
Y2032000D03*
D03*
Y2286000D03*
D03*
Y2540000D03*
D03*
Y2794000D03*
D03*
Y3048000D03*
D03*
X2286000Y4826000D03*
D03*
Y5080000D03*
D03*
Y5334000D03*
D03*
X3048000Y4826000D03*
D03*
Y5080000D03*
D03*
Y5334000D03*
D03*
Y5588000D03*
D03*
X4826000D03*
D03*
X5588000D03*
D03*
X5334000D03*
D03*
X5080000D03*
D03*
X7112000Y2032000D03*
D03*
X6858000D03*
D03*
X7112000Y2794000D03*
D03*
X6858000D03*
D03*
X6604000D03*
D03*
Y5080000D03*
D03*
Y5334000D03*
D03*
Y5588000D03*
D03*
X7366000Y2032000D03*
D03*
Y2794000D03*
D03*
Y5080000D03*
D03*
Y5334000D03*
D03*
Y5588000D03*
D03*
Y5842000D03*
D03*
X9144000Y2540000D03*
D03*
Y2794000D03*
D03*
G54D22*
G01X1524000Y2540000D02*
X1383500D01*
X1333500Y2590000D01*
Y2998000D01*
X1283500Y3048000D01*
X762000D01*
G01Y5334000D02*
X2286000D01*
G01X1690700Y508000D02*
X1557300D01*
Y908000D01*
X1690700D01*
G01X1637300Y714700D02*
X1557300D01*
G01X1772500Y908000D02*
Y508000D01*
X1905900D01*
G01X2121100D02*
X1987700D01*
Y908000D01*
X2121100D01*
G01X2067700Y714700D02*
X1987700D01*
G01X2342900Y874700D02*
X2322900Y894700D01*
X2299600Y908000D01*
X2272900D01*
X2242900Y888000D01*
X2219600Y854700D01*
X2202900Y814700D01*
X2189600Y748000D01*
X2186300Y688000D01*
X2192900Y628000D01*
X2202900Y588000D01*
X2222900Y548000D01*
X2246300Y521300D01*
X2269600Y508000D01*
X2292900D01*
X2316300Y521300D01*
X2336300Y541300D01*
X2352900Y568000D01*
G01X2484800Y908000D02*
Y508000D01*
G01X2408100Y908000D02*
X2561500D01*
G01X2633300Y508000D02*
Y908000D01*
X2716700D01*
X2743300Y888000D01*
X2760000Y861300D01*
X2766700Y808000D01*
X2760000Y754700D01*
X2740000Y721300D01*
X2716700Y701300D01*
X2633300D01*
G01X2716700D02*
X2766700Y508000D01*
G01X2915200D02*
X2888500Y514700D01*
X2865200Y541300D01*
X2845200Y581300D01*
X2831900Y628000D01*
X2825200Y681300D01*
Y734700D01*
X2831900Y788000D01*
X2845200Y834700D01*
X2865200Y874700D01*
X2888500Y901300D01*
X2915200Y908000D01*
X2941900Y901300D01*
X2965200Y874700D01*
X2985200Y834700D01*
X2998500Y788000D01*
X3005200Y734700D01*
Y681300D01*
X2998500Y628000D01*
X2985200Y581300D01*
X2965200Y541300D01*
X2941900Y514700D01*
X2915200Y508000D01*
G01X3053700D02*
Y908000D01*
X3207100Y508000D01*
Y908000D01*
G01X3305600D02*
X3385600D01*
G01X3345600D02*
Y508000D01*
G01X3305600D02*
X3385600D01*
G01X3634100Y874700D02*
X3614100Y894700D01*
X3590800Y908000D01*
X3564100D01*
X3534100Y888000D01*
X3510800Y854700D01*
X3494100Y814700D01*
X3480800Y748000D01*
X3477500Y688000D01*
X3484100Y628000D01*
X3494100Y588000D01*
X3514100Y548000D01*
X3537500Y521300D01*
X3560800Y508000D01*
X3584100D01*
X3607500Y521300D01*
X3627500Y541300D01*
X3644100Y568000D01*
G01X4064500Y874700D02*
X4044500Y894700D01*
X4021200Y908000D01*
X3994500D01*
X3964500Y888000D01*
X3941200Y854700D01*
X3924500Y814700D01*
X3911200Y748000D01*
X3907900Y688000D01*
X3914500Y628000D01*
X3924500Y588000D01*
X3944500Y548000D01*
X3967900Y521300D01*
X3991200Y508000D01*
X4014500D01*
X4037900Y521300D01*
X4057900Y541300D01*
X4074500Y568000D01*
G01X4123100Y508000D02*
X4206400Y908000D01*
X4289700Y508000D01*
G01X4259700Y648000D02*
X4153100D01*
G01X4448300Y721300D02*
X4461600Y741300D01*
X4471600Y774700D01*
X4478300Y821300D01*
X4471600Y861300D01*
X4458300Y888000D01*
X4434900Y908000D01*
X4344900D01*
Y508000D01*
X4454900D01*
X4478300Y534700D01*
X4491600Y574700D01*
X4498300Y621300D01*
X4491600Y668000D01*
X4471600Y708000D01*
X4448300Y721300D01*
X4344900D01*
G01X4788700Y841300D02*
X4808700Y881300D01*
X4832000Y901300D01*
X4858700Y908000D01*
X4892000Y894700D01*
X4915300Y861300D01*
X4922000Y821300D01*
X4918700Y781300D01*
X4905300Y748000D01*
X4838700Y681300D01*
X4808700Y634700D01*
X4788700Y568000D01*
X4782000Y508000D01*
X4922000D01*
G01X5067200Y908000D02*
X5040500Y894700D01*
X5020500Y861300D01*
X5007200Y821300D01*
X4997200Y768000D01*
X4993900Y708000D01*
X4997200Y648000D01*
X5007200Y594700D01*
X5020500Y554700D01*
X5040500Y521300D01*
X5067200Y508000D01*
X5093900Y521300D01*
X5113900Y554700D01*
X5127200Y594700D01*
X5137200Y648000D01*
X5140500Y708000D01*
X5137200Y768000D01*
X5127200Y821300D01*
X5113900Y861300D01*
X5093900Y894700D01*
X5067200Y908000D01*
G01X5282400Y508000D02*
Y908000D01*
X5242400Y828000D01*
G01Y508000D02*
X5322400D01*
G01X5440900Y554700D02*
X5464300Y521300D01*
X5490900Y508000D01*
X5517600Y521300D01*
X5540900Y561300D01*
X5557600Y621300D01*
X5564300Y681300D01*
Y754700D01*
X5557600Y814700D01*
X5540900Y868000D01*
X5520900Y894700D01*
X5497600Y908000D01*
X5470900Y894700D01*
X5450900Y868000D01*
X5437600Y828000D01*
X5430900Y774700D01*
X5437600Y728000D01*
X5454300Y681300D01*
X5474300Y654700D01*
X5497600Y648000D01*
X5524300Y661300D01*
X5544300Y694700D01*
X5564300Y754700D01*
G01X5712800Y908000D02*
X5686100Y894700D01*
X5666100Y861300D01*
X5652800Y821300D01*
X5642800Y768000D01*
X5639500Y708000D01*
X5642800Y648000D01*
X5652800Y594700D01*
X5666100Y554700D01*
X5686100Y521300D01*
X5712800Y508000D01*
X5739500Y521300D01*
X5759500Y554700D01*
X5772800Y594700D01*
X5782800Y648000D01*
X5786100Y708000D01*
X5782800Y768000D01*
X5772800Y821300D01*
X5759500Y861300D01*
X5739500Y894700D01*
X5712800Y908000D01*
G01X5921300Y508000D02*
X5928000Y594700D01*
X5938000Y668000D01*
X5951300Y734700D01*
X5968000Y808000D01*
X5994700Y908000D01*
X5861300D01*
G01X6069900Y588000D02*
X6089900Y541300D01*
X6116500Y514700D01*
X6146500Y508000D01*
X6173200Y514700D01*
X6199900Y548000D01*
X6216500Y588000D01*
X6219900Y628000D01*
X6213200Y674700D01*
X6189900Y708000D01*
X6166500Y721300D01*
X6136500D01*
G01X6166500D02*
X6186500Y741300D01*
X6203200Y774700D01*
X6209900Y814700D01*
X6203200Y854700D01*
X6186500Y888000D01*
X6156500Y908000D01*
X6126500Y901300D01*
X6096500Y874700D01*
G01X6358400Y508000D02*
Y908000D01*
X6318400Y828000D01*
G01Y508000D02*
X6398400D01*
G01X1524000Y1524000D02*
X2490000D01*
X2540000Y1474000D01*
Y1270000D01*
G01X1524000Y1778000D02*
X2540000D01*
G01X1524000Y2540000D02*
X2490000D01*
X2540000Y2590000D01*
Y2794000D01*
G01X1524000Y2286000D02*
X2540000D01*
G01X8636000Y4724400D02*
Y4445000D01*
X8572500Y4381500D01*
X5270500D01*
X5207000Y4318000D01*
Y3098000D01*
X5157000Y3048000D01*
X1524000D01*
G01Y4889500D02*
Y4064000D01*
G01X2286000Y5080000D02*
X1764500D01*
X1714500Y5030000D01*
Y4889500D01*
X1524000D01*
G01X1951300Y6716700D02*
X1931300Y6736700D01*
X1908000Y6750000D01*
X1881300D01*
X1851300Y6730000D01*
X1828000Y6696700D01*
X1811300Y6656700D01*
X1798000Y6590000D01*
X1794700Y6530000D01*
X1801300Y6470000D01*
X1811300Y6430000D01*
X1831300Y6390000D01*
X1854700Y6363300D01*
X1878000Y6350000D01*
X1901300D01*
X1924700Y6363300D01*
X1944700Y6383300D01*
X1961300Y6410000D01*
G01X2023200Y6350000D02*
Y6750000D01*
G01X2163200D02*
Y6350000D01*
G01Y6550000D02*
X2023200D01*
G01X2308400Y6350000D02*
X2281700Y6356700D01*
X2258400Y6383300D01*
X2238400Y6423300D01*
X2225100Y6470000D01*
X2218400Y6523300D01*
Y6576700D01*
X2225100Y6630000D01*
X2238400Y6676700D01*
X2258400Y6716700D01*
X2281700Y6743300D01*
X2308400Y6750000D01*
X2335100Y6743300D01*
X2358400Y6716700D01*
X2378400Y6676700D01*
X2391700Y6630000D01*
X2398400Y6576700D01*
Y6523300D01*
X2391700Y6470000D01*
X2378400Y6423300D01*
X2358400Y6383300D01*
X2335100Y6356700D01*
X2308400Y6350000D01*
G01X2456900D02*
Y6750000D01*
X2536900D01*
X2563600Y6730000D01*
X2583600Y6683300D01*
X2590300Y6630000D01*
X2583600Y6576700D01*
X2566900Y6536700D01*
X2536900Y6516700D01*
X2456900D01*
G01X2672100Y6350000D02*
Y6750000D01*
X2752100D01*
X2778800Y6730000D01*
X2798800Y6683300D01*
X2805500Y6630000D01*
X2798800Y6576700D01*
X2782100Y6536700D01*
X2752100Y6516700D01*
X2672100D01*
G01X2914000Y6750000D02*
X2994000D01*
G01X2954000D02*
Y6350000D01*
G01X2914000D02*
X2994000D01*
G01X3092500D02*
Y6750000D01*
X3245900Y6350000D01*
Y6750000D01*
G01X3404400Y6550000D02*
X3471100D01*
Y6430000D01*
X3451100Y6390000D01*
X3427700Y6363300D01*
X3394400Y6350000D01*
X3361100Y6363300D01*
X3337700Y6390000D01*
X3317700Y6430000D01*
X3304400Y6476700D01*
X3297700Y6530000D01*
Y6576700D01*
X3304400Y6616700D01*
X3317700Y6663300D01*
X3337700Y6703300D01*
X3357700Y6730000D01*
X3384400Y6750000D01*
X3407700D01*
X3434400Y6736700D01*
X3454400Y6710000D01*
G01X3714800Y6750000D02*
X3761500Y6350000D01*
X3814800Y6750000D01*
X3868100Y6350000D01*
X3914800Y6750000D01*
G01X3946700Y6350000D02*
X4030000Y6750000D01*
X4113300Y6350000D01*
G01X4083300Y6490000D02*
X3976700D01*
G01X4161900Y6750000D02*
X4245200Y6350000D01*
X4328500Y6750000D01*
G01X4527100Y6350000D02*
X4393700D01*
Y6750000D01*
X4527100D01*
G01X4473700Y6556700D02*
X4393700D01*
G01X4890800Y6350000D02*
X4864100Y6356700D01*
X4840800Y6383300D01*
X4820800Y6423300D01*
X4807500Y6470000D01*
X4800800Y6523300D01*
Y6576700D01*
X4807500Y6630000D01*
X4820800Y6676700D01*
X4840800Y6716700D01*
X4864100Y6743300D01*
X4890800Y6750000D01*
X4917500Y6743300D01*
X4940800Y6716700D01*
X4960800Y6676700D01*
X4974100Y6630000D01*
X4980800Y6576700D01*
Y6523300D01*
X4974100Y6470000D01*
X4960800Y6423300D01*
X4940800Y6383300D01*
X4917500Y6356700D01*
X4890800Y6350000D01*
G01X5036000Y6403300D02*
X5062700Y6370000D01*
X5092700Y6350000D01*
X5119300D01*
X5146000Y6370000D01*
X5166000Y6403300D01*
X5176000Y6450000D01*
X5169300Y6496700D01*
X5152700Y6536700D01*
X5122700Y6563300D01*
X5082700Y6576700D01*
X5059300Y6603300D01*
X5049300Y6650000D01*
X5056000Y6696700D01*
X5072700Y6730000D01*
X5096000Y6750000D01*
X5119300D01*
X5142700Y6736700D01*
X5162700Y6703300D01*
G01X5394500Y6716700D02*
X5374500Y6736700D01*
X5351200Y6750000D01*
X5324500D01*
X5294500Y6730000D01*
X5271200Y6696700D01*
X5254500Y6656700D01*
X5241200Y6590000D01*
X5237900Y6530000D01*
X5244500Y6470000D01*
X5254500Y6430000D01*
X5274500Y6390000D01*
X5297900Y6363300D01*
X5321200Y6350000D01*
X5344500D01*
X5367900Y6363300D01*
X5387900Y6383300D01*
X5404500Y6410000D01*
G01X2540000Y4064000D02*
X2857500D01*
X2921000Y4127500D01*
Y5030000D01*
X2971000Y5080000D01*
X3048000D01*
G01X4000500Y6096000D02*
X2921000D01*
X2857500Y6032500D01*
Y5384000D01*
X2807500Y5334000D01*
X2286000D01*
G01X3048000Y5080000D02*
X4000500D01*
G01X3556000Y1270000D02*
X4318000D01*
G01X3556000Y1778000D02*
X4318000D01*
G01X5334000Y1270000D02*
Y1410500D01*
X5284000Y1460500D01*
X4177500D01*
X4127500Y1510500D01*
Y2236000D01*
X4077500Y2286000D01*
X3556000D01*
G01Y2794000D02*
X4318000D01*
G01X4000500Y5080000D02*
X4572000D01*
G01X5334000Y1778000D02*
X5193500D01*
X5143500Y1728000D01*
Y1320000D01*
X5093500Y1270000D01*
X4318000D01*
G01X5334000Y2286000D02*
X5130000D01*
X5080000Y2236000D01*
Y1828000D01*
X5030000Y1778000D01*
X4318000D01*
G01Y2794000D02*
Y2286000D01*
G01X7112000Y2032000D02*
Y2109000D01*
X7062000Y2159000D01*
X6463500D01*
X6413500Y2109000D01*
Y1320000D01*
X6363500Y1270000D01*
X5334000D01*
G01X6604000Y5334000D02*
X5955500D01*
X5905500Y5284000D01*
Y4622000D01*
X5855500Y4572000D01*
X5588000D01*
G01X6604000Y5588000D02*
X5828500D01*
X5778500Y5538000D01*
Y5130000D01*
X5728500Y5080000D01*
X5588000D01*
G01Y6350000D02*
X5511000D01*
X5461000Y6300000D01*
Y5207000D01*
X5588000Y5080000D01*
G01X6858000Y2032000D02*
Y762000D01*
G01Y2032000D02*
Y1905000D01*
X6985000Y1778000D01*
X8382000D01*
G01Y2794000D02*
Y2934500D01*
X8332000Y2984500D01*
X7162000D01*
X7112000Y2934500D01*
Y2794000D01*
G01X7366000Y5334000D02*
X7225500D01*
X7175500Y5384000D01*
Y6300000D01*
X7225500Y6350000D01*
X8128000D01*
G01D02*
X6604000D01*
G01X9144000Y2794000D02*
X8382000D01*
G01X8128000Y5334000D02*
Y4724400D01*
G01X8636000D02*
X8661400Y4699000D01*
X8776500D01*
X8826500Y4749000D01*
Y6300000D01*
X8776500Y6350000D01*
X8636000D01*
G01X8128000Y5334000D02*
X8636000D01*
G54D13*
X762000Y1524000D03*
Y1778000D03*
Y2032000D03*
Y2286000D03*
Y2540000D03*
Y2794000D03*
Y3048000D03*
Y5334000D03*
X508000D03*
X1524000Y1524000D03*
Y1778000D03*
Y2032000D03*
Y2286000D03*
Y2540000D03*
Y2794000D03*
Y3048000D03*
X1395500Y11478500D03*
X2286000Y4826000D03*
Y5080000D03*
Y5334000D03*
Y5588000D03*
X3048000Y4826000D03*
Y5080000D03*
Y5334000D03*
Y5588000D03*
X4826000D03*
X5588000D03*
X5334000D03*
X5080000D03*
X7112000Y2032000D03*
X6858000D03*
X6604000D03*
X7112000Y2794000D03*
X6858000D03*
X6604000D03*
Y5080000D03*
Y5334000D03*
Y5588000D03*
Y5842000D03*
X7366000Y2032000D03*
Y2794000D03*
Y5080000D03*
Y5334000D03*
Y5588000D03*
Y5842000D03*
X9144000Y2540000D03*
Y2794000D03*
G54D14*
X762000Y3048000D03*
D03*
X2286000Y5588000D03*
D03*
X6604000Y2032000D03*
D03*
Y5842000D03*
D03*
G54D15*
X508000Y4889500D03*
D03*
X1524000Y4064000D03*
D03*
Y4889500D03*
D03*
X2540000Y1778000D03*
D03*
Y1270000D03*
D03*
Y2286000D03*
D03*
Y2794000D03*
D03*
Y4064000D03*
D03*
X3556000Y1778000D03*
D03*
Y1270000D03*
D03*
Y2286000D03*
D03*
Y2794000D03*
D03*
X4000500Y5080000D03*
D03*
Y6096000D03*
D03*
X4318000Y1270000D03*
D03*
Y1778000D03*
D03*
Y2286000D03*
D03*
Y2794000D03*
D03*
X4572000Y4572000D03*
D03*
Y5080000D03*
D03*
X5334000Y1270000D03*
D03*
Y1778000D03*
D03*
Y2286000D03*
D03*
Y2794000D03*
D03*
X5588000Y4572000D03*
D03*
Y5080000D03*
D03*
Y6350000D03*
D03*
X6858000Y762000D03*
D03*
X6604000Y6350000D03*
D03*
X7874000Y762000D03*
D03*
X8382000Y1778000D03*
D03*
Y2794000D03*
D03*
X8128000Y5334000D03*
D03*
X8636000D03*
D03*
X8128000Y6350000D03*
D03*
X8636000D03*
D03*
G54D16*
X508000Y4889500D03*
X1524000Y4064000D03*
Y4889500D03*
X1395500Y10843500D03*
X2540000Y1778000D03*
Y1270000D03*
Y2286000D03*
Y2794000D03*
Y4064000D03*
X3556000Y1778000D03*
Y1270000D03*
Y2286000D03*
Y2794000D03*
X4000500Y5080000D03*
Y6096000D03*
X4318000Y1270000D03*
Y1778000D03*
Y2286000D03*
Y2794000D03*
X4572000Y4572000D03*
Y5080000D03*
X5334000Y1270000D03*
Y1778000D03*
Y2286000D03*
Y2794000D03*
X5588000Y4572000D03*
Y5080000D03*
Y6350000D03*
X6858000Y762000D03*
X6604000Y6350000D03*
X7874000Y762000D03*
X8382000Y1778000D03*
Y2794000D03*
X8128000Y5334000D03*
X8636000D03*
X8128000Y6350000D03*
X8636000D03*
G54D17*
X1395500Y12113500D03*
X8128000Y3810000D03*
X8636000D03*
X8128000Y4724400D03*
X8636000D03*
G54D18*
X1395500Y12748500D03*
G54D19*
X8128000Y3810000D03*
D03*
X8636000D03*
D03*
M02*
