G04 ================== begin FILE IDENTIFICATION RECORD ==================*
G04 Layout Name:  MY_TEST731_2.brd*
G04 Film Name:    SilkB*
G04 File Format:  Gerber RS274X*
G04 File Origin:  Cadence Allegro 17.2-P019*
G04 Origin Date:  Wed Jul 31 16:30:30 2019*
G04 *
G04 Layer:  REF DES/SILKSCREEN_TOP*
G04 Layer:  PACKAGE GEOMETRY/SILKSCREEN_BOTTOM*
G04 Layer:  BOARD GEOMETRY/SILKSCREEN_BOTTOM*
G04 *
G04 Offset:    (0.000 0.000)*
G04 Mirror:    No*
G04 Mode:      Positive*
G04 Rotation:  0*
G04 FullContactRelief:  No*
G04 UndefLineWidth:     0.200*
G04 ================== end FILE IDENTIFICATION RECORD ====================*
%FSLAX25Y25*MOMM*%
%IR0*IPPOS*OFA0.00000B0.00000*MIA0B0*SFA1.00000B1.00000*%
%ADD10C,.2*%
G75*
%LPD*%
G75*
G54D10*
G01X980000Y5871400D02*
X986400Y5881000D01*
X990600Y5892300D01*
Y5905100D01*
X984200Y5919600D01*
X973700Y5930900D01*
X961000Y5938900D01*
X939800Y5945400D01*
X920700Y5947000D01*
X901700Y5943700D01*
X889000Y5938900D01*
X876300Y5929300D01*
X867800Y5918000D01*
X863600Y5906800D01*
Y5895500D01*
X867800Y5884200D01*
X874200Y5874600D01*
X882600Y5866500D01*
G01X863600Y5777300D02*
X990600D01*
X965200Y5796600D01*
G01X863600D02*
Y5758000D01*
G01X1741400Y2857500D02*
Y2766500D01*
X1747800Y2747400D01*
X1760700Y2734700D01*
X1776700Y2730500D01*
X1792800Y2734700D01*
X1805700Y2747400D01*
X1812100Y2766500D01*
Y2857500D01*
G01X1870900Y2755900D02*
X1880500Y2741100D01*
X1893400Y2732600D01*
X1907900Y2730500D01*
X1920700Y2732600D01*
X1933600Y2743200D01*
X1941600Y2755900D01*
X1943200Y2768600D01*
X1940000Y2783400D01*
X1928800Y2794000D01*
X1917500Y2798200D01*
X1903000D01*
G01X1917500D02*
X1927200Y2804600D01*
X1935200Y2815200D01*
X1938400Y2827900D01*
X1935200Y2840600D01*
X1927200Y2851100D01*
X1912700Y2857500D01*
X1898200Y2855400D01*
X1883700Y2846900D01*
G01X1130300Y4740100D02*
X1209000D01*
Y4715700D01*
X1205100Y4707900D01*
X1199800Y4703100D01*
X1189300Y4701100D01*
X1178800Y4703100D01*
X1172300Y4708900D01*
X1168300Y4715700D01*
Y4740100D01*
G01Y4715700D02*
X1130300Y4701100D01*
G01Y4641900D02*
X1131600Y4635100D01*
X1135500Y4627300D01*
X1142100Y4622400D01*
X1151300Y4620500D01*
X1160500Y4622400D01*
X1168300Y4628300D01*
X1172300Y4637000D01*
Y4646800D01*
X1174900Y4652600D01*
X1181500Y4657500D01*
X1190600Y4659400D01*
X1199800Y4656500D01*
X1206400Y4649700D01*
X1209000Y4641900D01*
X1206400Y4634100D01*
X1199800Y4627300D01*
X1190600Y4624400D01*
X1181500Y4626300D01*
X1174900Y4631200D01*
X1172300Y4637000D01*
Y4646800D01*
X1168300Y4655500D01*
X1160500Y4661400D01*
X1151300Y4663300D01*
X1142100Y4661400D01*
X1135500Y4656500D01*
X1131600Y4648700D01*
X1130300Y4641900D01*
G01X2146300Y3914600D02*
X2225000D01*
Y3890200D01*
X2221100Y3882400D01*
X2215800Y3877600D01*
X2205300Y3875600D01*
X2194800Y3877600D01*
X2188300Y3883400D01*
X2184300Y3890200D01*
Y3914600D01*
G01Y3890200D02*
X2146300Y3875600D01*
G01Y3818300D02*
X2163400Y3816400D01*
X2177800Y3813500D01*
X2190900Y3809600D01*
X2205300Y3804700D01*
X2225000Y3796900D01*
Y3835900D01*
G01X3162300Y1159900D02*
X3241000D01*
Y1135500D01*
X3237100Y1127700D01*
X3231800Y1122900D01*
X3221300Y1120900D01*
X3210800Y1122900D01*
X3204300Y1128700D01*
X3200300Y1135500D01*
Y1159900D01*
G01Y1135500D02*
X3162300Y1120900D01*
G01Y1061700D02*
X3241000D01*
X3225300Y1073400D01*
G01X3162300D02*
Y1050000D01*
G01X3227900Y1001500D02*
X3235800Y995700D01*
X3239700Y988800D01*
X3241000Y981100D01*
X3238400Y971300D01*
X3231800Y964500D01*
X3223900Y962600D01*
X3216100Y963500D01*
X3209500Y967400D01*
X3196400Y986900D01*
X3187200Y995700D01*
X3174100Y1001500D01*
X3162300Y1003400D01*
Y962600D01*
G01Y1667900D02*
X3241000D01*
Y1643500D01*
X3237100Y1635700D01*
X3231800Y1630900D01*
X3221300Y1628900D01*
X3210800Y1630900D01*
X3204300Y1636700D01*
X3200300Y1643500D01*
Y1667900D01*
G01Y1643500D02*
X3162300Y1628900D01*
G01Y1569700D02*
X3241000D01*
X3225300Y1581400D01*
G01X3162300D02*
Y1558000D01*
G01Y1479300D02*
X3241000D01*
X3184600Y1515300D01*
Y1466700D01*
G01X3162300Y2683900D02*
X3241000D01*
Y2659500D01*
X3237100Y2651700D01*
X3231800Y2646900D01*
X3221300Y2644900D01*
X3210800Y2646900D01*
X3204300Y2652700D01*
X3200300Y2659500D01*
Y2683900D01*
G01Y2659500D02*
X3162300Y2644900D01*
G01Y2585700D02*
X3241000D01*
X3225300Y2597400D01*
G01X3162300D02*
Y2574000D01*
G01Y2508900D02*
X3179400Y2507000D01*
X3193800Y2504100D01*
X3206900Y2500200D01*
X3221300Y2495300D01*
X3241000Y2487500D01*
Y2526500D01*
G01X3162300Y2136600D02*
X3241000D01*
Y2112200D01*
X3237100Y2104400D01*
X3231800Y2099600D01*
X3221300Y2097600D01*
X3210800Y2099600D01*
X3204300Y2105400D01*
X3200300Y2112200D01*
Y2136600D01*
G01Y2112200D02*
X3162300Y2097600D01*
G01X3171500Y2054900D02*
X3164900Y2048100D01*
X3162300Y2040300D01*
X3164900Y2032600D01*
X3172800Y2025700D01*
X3184600Y2020900D01*
X3196400Y2018900D01*
X3210800D01*
X3222600Y2020900D01*
X3233100Y2025700D01*
X3238400Y2031600D01*
X3241000Y2038400D01*
X3238400Y2046200D01*
X3233100Y2052000D01*
X3225300Y2055900D01*
X3214800Y2057900D01*
X3205600Y2055900D01*
X3196400Y2051100D01*
X3191200Y2045200D01*
X3189800Y2038400D01*
X3192500Y2030600D01*
X3199000Y2024800D01*
X3210800Y2018900D01*
G01X3191700Y5570200D02*
Y5479200D01*
X3198100Y5460100D01*
X3211000Y5447400D01*
X3227000Y5443200D01*
X3243100Y5447400D01*
X3256000Y5460100D01*
X3262400Y5479200D01*
Y5570200D01*
G01X3356500Y5443200D02*
Y5570200D01*
X3337200Y5544800D01*
G01Y5443200D02*
X3375800D01*
G01X3851100Y5473700D02*
Y5395000D01*
X3826700D01*
X3818900Y5398900D01*
X3814100Y5404200D01*
X3812100Y5414700D01*
X3814100Y5425200D01*
X3819900Y5431700D01*
X3826700Y5435700D01*
X3851100D01*
G01X3826700D02*
X3812100Y5473700D01*
G01X3752900D02*
Y5395000D01*
X3764600Y5410700D01*
G01Y5473700D02*
X3741200D01*
G01X4711700Y2904100D02*
X4633000D01*
Y2928500D01*
X4636900Y2936300D01*
X4642200Y2941100D01*
X4652700Y2943100D01*
X4663200Y2941100D01*
X4669700Y2935300D01*
X4673700Y2928500D01*
Y2904100D01*
G01Y2928500D02*
X4711700Y2943100D01*
G01Y3002300D02*
X4633000D01*
X4648700Y2990600D01*
G01X4711700D02*
Y3014000D01*
G01Y3081000D02*
X4710400Y3087800D01*
X4706500Y3095600D01*
X4699900Y3100500D01*
X4690700Y3102400D01*
X4681500Y3100500D01*
X4673700Y3094600D01*
X4669700Y3085900D01*
Y3076100D01*
X4667100Y3070300D01*
X4660500Y3065400D01*
X4651400Y3063500D01*
X4642200Y3066400D01*
X4635600Y3073200D01*
X4633000Y3081000D01*
X4635600Y3088800D01*
X4642200Y3095600D01*
X4651400Y3098500D01*
X4660500Y3096600D01*
X4667100Y3091700D01*
X4669700Y3085900D01*
Y3076100D01*
X4673700Y3067400D01*
X4681500Y3061500D01*
X4690700Y3059600D01*
X4699900Y3061500D01*
X4706500Y3066400D01*
X4710400Y3074200D01*
X4711700Y3081000D01*
G01X4711300Y5770900D02*
X4719300Y5758200D01*
X4729000Y5749700D01*
X4740200Y5745500D01*
X4753100Y5749700D01*
X4762800Y5758200D01*
X4772400Y5770900D01*
X4775600Y5787800D01*
Y5872500D01*
G01X4842400Y5851300D02*
X4852000Y5864000D01*
X4863300Y5870400D01*
X4876200Y5872500D01*
X4892300Y5868300D01*
X4903500Y5857700D01*
X4906700Y5845000D01*
X4905100Y5832300D01*
X4898700Y5821700D01*
X4866500Y5800500D01*
X4852000Y5785700D01*
X4842400Y5764500D01*
X4839200Y5745500D01*
X4906700D01*
G01X4940300Y1159900D02*
X5019000D01*
Y1135500D01*
X5015100Y1127700D01*
X5009800Y1122900D01*
X4999300Y1120900D01*
X4988800Y1122900D01*
X4982300Y1128700D01*
X4978300Y1135500D01*
Y1159900D01*
G01Y1135500D02*
X4940300Y1120900D01*
G01Y1061700D02*
X5019000D01*
X5003300Y1073400D01*
G01X4940300D02*
Y1050000D01*
G01Y983000D02*
X5019000D01*
X5003300Y994700D01*
G01X4940300D02*
Y971300D01*
G01Y1667900D02*
X5019000D01*
Y1643500D01*
X5015100Y1635700D01*
X5009800Y1630900D01*
X4999300Y1628900D01*
X4988800Y1630900D01*
X4982300Y1636700D01*
X4978300Y1643500D01*
Y1667900D01*
G01Y1643500D02*
X4940300Y1628900D01*
G01Y1569700D02*
X5019000D01*
X5003300Y1581400D01*
G01X4940300D02*
Y1558000D01*
G01X4956000Y1512400D02*
X4946900Y1506600D01*
X4941600Y1498800D01*
X4940300Y1490000D01*
X4941600Y1482200D01*
X4948200Y1474500D01*
X4956000Y1469600D01*
X4963900Y1468600D01*
X4973100Y1470600D01*
X4979600Y1477400D01*
X4982300Y1484200D01*
Y1492900D01*
G01Y1484200D02*
X4986200Y1478300D01*
X4992800Y1473500D01*
X5000600Y1471500D01*
X5008500Y1473500D01*
X5015100Y1478300D01*
X5019000Y1487100D01*
X5017700Y1495900D01*
X5012400Y1504600D01*
G01X4940300Y2175900D02*
X5019000D01*
Y2151500D01*
X5015100Y2143700D01*
X5009800Y2138900D01*
X4999300Y2136900D01*
X4988800Y2138900D01*
X4982300Y2144700D01*
X4978300Y2151500D01*
Y2175900D01*
G01Y2151500D02*
X4940300Y2136900D01*
G01Y2077700D02*
X5019000D01*
X5003300Y2089400D01*
G01X4940300D02*
Y2066000D01*
G01X4952100Y2020400D02*
X4945500Y2014600D01*
X4941600Y2007800D01*
X4940300Y1999000D01*
X4942900Y1990200D01*
X4948200Y1983400D01*
X4957400Y1978600D01*
X4967800Y1977600D01*
X4978300Y1979500D01*
X4984900Y1984400D01*
X4990100Y1991200D01*
X4991500Y1998000D01*
X4990100Y2004800D01*
X4984900Y2013600D01*
X5019000Y2010700D01*
Y1984400D01*
G01X5194300Y4930600D02*
X5273000D01*
Y4906200D01*
X5269100Y4898400D01*
X5263800Y4893600D01*
X5253300Y4891600D01*
X5242800Y4893600D01*
X5236300Y4899400D01*
X5232300Y4906200D01*
Y4930600D01*
G01Y4906200D02*
X5194300Y4891600D01*
G01X5210000Y4853800D02*
X5200900Y4848000D01*
X5195600Y4840200D01*
X5194300Y4831400D01*
X5195600Y4823600D01*
X5202200Y4815900D01*
X5210000Y4811000D01*
X5217900Y4810000D01*
X5227100Y4812000D01*
X5233600Y4818800D01*
X5236300Y4825600D01*
Y4834300D01*
G01Y4825600D02*
X5240200Y4819700D01*
X5246800Y4814900D01*
X5254600Y4812900D01*
X5262500Y4814900D01*
X5269100Y4819700D01*
X5273000Y4828500D01*
X5271700Y4837300D01*
X5266400Y4846000D01*
G01X5194300Y4422600D02*
X5273000D01*
Y4398200D01*
X5269100Y4390400D01*
X5263800Y4385600D01*
X5253300Y4383600D01*
X5242800Y4385600D01*
X5236300Y4391400D01*
X5232300Y4398200D01*
Y4422600D01*
G01Y4398200D02*
X5194300Y4383600D01*
G01X5227100Y4342900D02*
X5236300Y4336100D01*
X5241500Y4330200D01*
X5244100Y4322500D01*
X5241500Y4315600D01*
X5236300Y4310800D01*
X5228400Y4306900D01*
X5219200Y4305900D01*
X5211400Y4306900D01*
X5203500Y4310800D01*
X5196900Y4316600D01*
X5194300Y4323400D01*
X5196900Y4331200D01*
X5204800Y4338000D01*
X5216600Y4341900D01*
X5229700Y4342900D01*
X5246800Y4340900D01*
X5255900Y4338000D01*
X5265100Y4333200D01*
X5271700Y4326300D01*
X5273000Y4319500D01*
X5270400Y4312700D01*
X5263800Y4307900D01*
G01X6210300Y6200600D02*
X6289000D01*
Y6176200D01*
X6285100Y6168400D01*
X6279800Y6163600D01*
X6269300Y6161600D01*
X6258800Y6163600D01*
X6252300Y6169400D01*
X6248300Y6176200D01*
Y6200600D01*
G01Y6176200D02*
X6210300Y6161600D01*
G01X6275900Y6120900D02*
X6283800Y6115100D01*
X6287700Y6108200D01*
X6289000Y6100500D01*
X6286400Y6090700D01*
X6279800Y6083900D01*
X6271900Y6082000D01*
X6264100Y6082900D01*
X6257500Y6086800D01*
X6244400Y6106300D01*
X6235200Y6115100D01*
X6222100Y6120900D01*
X6210300Y6122800D01*
Y6082000D01*
G01X7251700Y872100D02*
X7173000D01*
Y896500D01*
X7176900Y904300D01*
X7182200Y909100D01*
X7192700Y911100D01*
X7203200Y909100D01*
X7209700Y903300D01*
X7213700Y896500D01*
Y872100D01*
G01Y896500D02*
X7251700Y911100D01*
G01Y970300D02*
X7173000D01*
X7188700Y958600D01*
G01X7251700D02*
Y982000D01*
G01X7218900Y1030500D02*
X7209700Y1037300D01*
X7204500Y1043200D01*
X7201900Y1050900D01*
X7204500Y1057800D01*
X7209700Y1062600D01*
X7217600Y1066500D01*
X7226800Y1067500D01*
X7234600Y1066500D01*
X7242500Y1062600D01*
X7249100Y1056800D01*
X7251700Y1050000D01*
X7249100Y1042200D01*
X7241200Y1035400D01*
X7229400Y1031500D01*
X7216300Y1030500D01*
X7199200Y1032500D01*
X7190100Y1035400D01*
X7180900Y1040200D01*
X7174300Y1047100D01*
X7173000Y1053900D01*
X7175600Y1060700D01*
X7182200Y1065500D01*
G01X6621800Y2937700D02*
X6712800D01*
X6731900Y2944100D01*
X6744600Y2957000D01*
X6748800Y2973000D01*
X6744600Y2989100D01*
X6731900Y3002000D01*
X6712800Y3008400D01*
X6621800D01*
G01X6748800Y3121900D02*
X6621800D01*
X6712800Y3062300D01*
Y3142800D01*
G01X7509700Y5824200D02*
Y5733200D01*
X7516100Y5714100D01*
X7529000Y5701400D01*
X7545000Y5697200D01*
X7561100Y5701400D01*
X7574000Y5714100D01*
X7580400Y5733200D01*
Y5824200D01*
G01X7644000Y5803000D02*
X7653600Y5815700D01*
X7664900Y5822100D01*
X7677800Y5824200D01*
X7693900Y5820000D01*
X7705100Y5809400D01*
X7708300Y5796700D01*
X7706700Y5784000D01*
X7700300Y5773400D01*
X7668100Y5752200D01*
X7653600Y5737400D01*
X7644000Y5716200D01*
X7640800Y5697200D01*
X7708300D01*
G01X8492100Y2400300D02*
Y2479000D01*
X8516500D01*
X8524300Y2475100D01*
X8529100Y2469800D01*
X8531100Y2459300D01*
X8529100Y2448800D01*
X8523300Y2442300D01*
X8516500Y2438300D01*
X8492100D01*
G01X8516500D02*
X8531100Y2400300D01*
G01X8590300D02*
Y2479000D01*
X8578600Y2463300D01*
G01Y2400300D02*
X8602000D01*
G01X8669000Y2479000D02*
X8661200Y2476400D01*
X8655400Y2469800D01*
X8651500Y2461900D01*
X8648600Y2451500D01*
X8647600Y2439600D01*
X8648600Y2427800D01*
X8651500Y2417400D01*
X8655400Y2409500D01*
X8661200Y2402900D01*
X8669000Y2400300D01*
X8676800Y2402900D01*
X8682600Y2409500D01*
X8686500Y2417400D01*
X8689400Y2427800D01*
X8690400Y2439600D01*
X8689400Y2451500D01*
X8686500Y2461900D01*
X8682600Y2469800D01*
X8676800Y2476400D01*
X8669000Y2479000D01*
G01X8255000Y4376100D02*
X8318500D01*
Y4362600D01*
X8315300Y4357100D01*
X8311100Y4353100D01*
X8304700Y4349700D01*
X8297300Y4347000D01*
X8286700Y4346300D01*
X8276200Y4347000D01*
X8268800Y4349700D01*
X8262400Y4353100D01*
X8258200Y4357100D01*
X8255000Y4362600D01*
Y4376100D01*
G01Y4305400D02*
X8318500D01*
X8305800Y4313500D01*
G01X8255000D02*
Y4297300D01*
G01X8486600Y5727700D02*
Y5649000D01*
X8462200D01*
X8454400Y5652900D01*
X8449600Y5658200D01*
X8447600Y5668700D01*
X8449600Y5679200D01*
X8455400Y5685700D01*
X8462200Y5689700D01*
X8486600D01*
G01X8462200D02*
X8447600Y5727700D01*
G01X8409800Y5715900D02*
X8404000Y5722500D01*
X8397200Y5726400D01*
X8388400Y5727700D01*
X8379600Y5725100D01*
X8372800Y5719800D01*
X8368000Y5710600D01*
X8367000Y5700200D01*
X8368900Y5689700D01*
X8373800Y5683100D01*
X8380600Y5677900D01*
X8387400Y5676500D01*
X8394200Y5677900D01*
X8403000Y5683100D01*
X8400100Y5649000D01*
X8373800D01*
G01X8277400Y5956300D02*
Y6035000D01*
X8301800D01*
X8309600Y6031100D01*
X8314400Y6025800D01*
X8316400Y6015300D01*
X8314400Y6004800D01*
X8308600Y5998300D01*
X8301800Y5994300D01*
X8277400D01*
G01X8301800D02*
X8316400Y5956300D01*
G01X8387300D02*
Y6035000D01*
X8351300Y5978600D01*
X8399900D01*
G01X9299400Y2924000D02*
X9291600Y2919100D01*
X9286300Y2913300D01*
X9283700Y2906400D01*
X9286300Y2898700D01*
X9291600Y2892800D01*
X9299400Y2887000D01*
X9309900Y2885000D01*
X9362400D01*
G01X9283700Y2825800D02*
X9362400D01*
X9346700Y2837500D01*
G01X9283700D02*
Y2814100D01*
G01X8763000Y4376100D02*
X8826500D01*
Y4362600D01*
X8823300Y4357100D01*
X8819100Y4353100D01*
X8812700Y4349700D01*
X8805300Y4347000D01*
X8794700Y4346300D01*
X8784200Y4347000D01*
X8776800Y4349700D01*
X8770400Y4353100D01*
X8766200Y4357100D01*
X8763000Y4362600D01*
Y4376100D01*
G01X8815900Y4318300D02*
X8822300Y4314200D01*
X8825400Y4309500D01*
X8826500Y4304000D01*
X8824400Y4297300D01*
X8819100Y4292500D01*
X8812700Y4291200D01*
X8806400Y4291900D01*
X8801100Y4294600D01*
X8790500Y4308100D01*
X8783100Y4314200D01*
X8772500Y4318300D01*
X8763000Y4319600D01*
Y4291200D01*
M02*
