G04 ================== begin FILE IDENTIFICATION RECORD ==================*
G04 Layout Name:  MY_TEST731_2.brd*
G04 Film Name:    SilkB*
G04 File Format:  Gerber RS274X*
G04 File Origin:  Cadence Allegro 17.2-P019*
G04 Origin Date:  Wed Jul 31 17:20:14 2019*
G04 *
G04 Layer:  REF DES/SILKSCREEN_TOP*
G04 Layer:  PACKAGE GEOMETRY/SILKSCREEN_BOTTOM*
G04 Layer:  BOARD GEOMETRY/SILKSCREEN_BOTTOM*
G04 *
G04 Offset:    (0.000 0.000)*
G04 Mirror:    No*
G04 Mode:      Positive*
G04 Rotation:  0*
G04 FullContactRelief:  No*
G04 UndefLineWidth:     0.200*
G04 ================== end FILE IDENTIFICATION RECORD ====================*
%FSLAX25Y25*MOMM*%
%IR0*IPPOS*OFA0.00000B0.00000*MIA0B0*SFA1.00000B1.00000*%
%ADD10C,.2*%
G75*
%LPD*%
G75*
G54D10*
G01X957100Y4572000D02*
Y4650700D01*
X981500D01*
X989300Y4646800D01*
X994100Y4641500D01*
X996100Y4631000D01*
X994100Y4620500D01*
X988300Y4614000D01*
X981500Y4610000D01*
X957100D01*
G01X981500D02*
X996100Y4572000D01*
G01X1055300D02*
X1062100Y4573300D01*
X1069900Y4577200D01*
X1074800Y4583800D01*
X1076700Y4593000D01*
X1074800Y4602200D01*
X1068900Y4610000D01*
X1060200Y4614000D01*
X1050400D01*
X1044600Y4616600D01*
X1039700Y4623200D01*
X1037800Y4632300D01*
X1040700Y4641500D01*
X1047500Y4648100D01*
X1055300Y4650700D01*
X1063100Y4648100D01*
X1069900Y4641500D01*
X1072800Y4632300D01*
X1070900Y4623200D01*
X1066000Y4616600D01*
X1060200Y4614000D01*
X1050400D01*
X1041700Y4610000D01*
X1035800Y4602200D01*
X1033900Y4593000D01*
X1035800Y4583800D01*
X1040700Y4577200D01*
X1048500Y4573300D01*
X1055300Y4572000D01*
G01X986600Y5704400D02*
X977000Y5710800D01*
X965700Y5715000D01*
X952900D01*
X938400Y5708600D01*
X927100Y5698100D01*
X919100Y5685400D01*
X912600Y5664200D01*
X911000Y5645100D01*
X914300Y5626100D01*
X919100Y5613400D01*
X928700Y5600700D01*
X940000Y5592200D01*
X951200Y5588000D01*
X962500D01*
X973800Y5592200D01*
X983400Y5598600D01*
X991500Y5607000D01*
G01X1080700Y5588000D02*
Y5715000D01*
X1061400Y5689600D01*
G01Y5588000D02*
X1100000D01*
G01X1741400Y2857500D02*
Y2766500D01*
X1747800Y2747400D01*
X1760700Y2734700D01*
X1776700Y2730500D01*
X1792800Y2734700D01*
X1805700Y2747400D01*
X1812100Y2766500D01*
Y2857500D01*
G01X1870900Y2755900D02*
X1880500Y2741100D01*
X1893400Y2732600D01*
X1907900Y2730500D01*
X1920700Y2732600D01*
X1933600Y2743200D01*
X1941600Y2755900D01*
X1943200Y2768600D01*
X1940000Y2783400D01*
X1928800Y2794000D01*
X1917500Y2798200D01*
X1903000D01*
G01X1917500D02*
X1927200Y2804600D01*
X1935200Y2815200D01*
X1938400Y2827900D01*
X1935200Y2840600D01*
X1927200Y2851100D01*
X1912700Y2857500D01*
X1898200Y2855400D01*
X1883700Y2846900D01*
G01X1973100Y4318000D02*
Y4396700D01*
X1997500D01*
X2005300Y4392800D01*
X2010100Y4387500D01*
X2012100Y4377000D01*
X2010100Y4366500D01*
X2004300Y4360000D01*
X1997500Y4356000D01*
X1973100D01*
G01X1997500D02*
X2012100Y4318000D01*
G01X2069400D02*
X2071300Y4335100D01*
X2074200Y4349500D01*
X2078100Y4362600D01*
X2083000Y4377000D01*
X2090800Y4396700D01*
X2051800D01*
G01X2949800Y1524000D02*
Y1602700D01*
X2974200D01*
X2982000Y1598800D01*
X2986800Y1593500D01*
X2988800Y1583000D01*
X2986800Y1572500D01*
X2981000Y1566000D01*
X2974200Y1562000D01*
X2949800D01*
G01X2974200D02*
X2988800Y1524000D01*
G01X3048000D02*
Y1602700D01*
X3036300Y1587000D01*
G01Y1524000D02*
X3059700D01*
G01X3108200Y1589600D02*
X3114000Y1597500D01*
X3120900Y1601400D01*
X3128600Y1602700D01*
X3138400Y1600100D01*
X3145200Y1593500D01*
X3147100Y1585600D01*
X3146200Y1577800D01*
X3142300Y1571200D01*
X3122800Y1558100D01*
X3114000Y1548900D01*
X3108200Y1535800D01*
X3106300Y1524000D01*
X3147100D01*
G01X2989100Y2540000D02*
Y2618700D01*
X3013500D01*
X3021300Y2614800D01*
X3026100Y2609500D01*
X3028100Y2599000D01*
X3026100Y2588500D01*
X3020300Y2582000D01*
X3013500Y2578000D01*
X2989100D01*
G01X3013500D02*
X3028100Y2540000D01*
G01X3070800Y2549200D02*
X3077600Y2542600D01*
X3085400Y2540000D01*
X3093100Y2542600D01*
X3100000Y2550500D01*
X3104800Y2562300D01*
X3106800Y2574100D01*
Y2588500D01*
X3104800Y2600300D01*
X3100000Y2610800D01*
X3094100Y2616100D01*
X3087300Y2618700D01*
X3079500Y2616100D01*
X3073700Y2610800D01*
X3069800Y2603000D01*
X3067800Y2592500D01*
X3069800Y2583300D01*
X3074600Y2574100D01*
X3080500Y2568900D01*
X3087300Y2567500D01*
X3095100Y2570200D01*
X3100900Y2576700D01*
X3106800Y2588500D01*
G01X2949800Y2032000D02*
Y2110700D01*
X2974200D01*
X2982000Y2106800D01*
X2986800Y2101500D01*
X2988800Y2091000D01*
X2986800Y2080500D01*
X2981000Y2074000D01*
X2974200Y2070000D01*
X2949800D01*
G01X2974200D02*
X2988800Y2032000D01*
G01X3048000D02*
Y2110700D01*
X3036300Y2095000D01*
G01Y2032000D02*
X3059700D01*
G01X3138400D02*
Y2110700D01*
X3102400Y2054300D01*
X3151000D01*
G01X2949800Y3048000D02*
Y3126700D01*
X2974200D01*
X2982000Y3122800D01*
X2986800Y3117500D01*
X2988800Y3107000D01*
X2986800Y3096500D01*
X2981000Y3090000D01*
X2974200Y3086000D01*
X2949800D01*
G01X2974200D02*
X2988800Y3048000D01*
G01X3048000D02*
Y3126700D01*
X3036300Y3111000D01*
G01Y3048000D02*
X3059700D01*
G01X3124800D02*
X3126700Y3065100D01*
X3129600Y3079500D01*
X3133500Y3092600D01*
X3138400Y3107000D01*
X3146200Y3126700D01*
X3107200D01*
G01X3191700Y5570200D02*
Y5479200D01*
X3198100Y5460100D01*
X3211000Y5447400D01*
X3227000Y5443200D01*
X3243100Y5447400D01*
X3256000Y5460100D01*
X3262400Y5479200D01*
Y5570200D01*
G01X3356500Y5443200D02*
Y5570200D01*
X3337200Y5544800D01*
G01Y5443200D02*
X3375800D01*
G01X3751100Y5842000D02*
Y5920700D01*
X3775500D01*
X3783300Y5916800D01*
X3788100Y5911500D01*
X3790100Y5901000D01*
X3788100Y5890500D01*
X3782300Y5884000D01*
X3775500Y5880000D01*
X3751100D01*
G01X3775500D02*
X3790100Y5842000D01*
G01X3849300D02*
Y5920700D01*
X3837600Y5905000D01*
G01Y5842000D02*
X3861000D01*
G01X4727800Y1524000D02*
Y1602700D01*
X4752200D01*
X4760000Y1598800D01*
X4764800Y1593500D01*
X4766800Y1583000D01*
X4764800Y1572500D01*
X4759000Y1566000D01*
X4752200Y1562000D01*
X4727800D01*
G01X4752200D02*
X4766800Y1524000D01*
G01X4826000D02*
Y1602700D01*
X4814300Y1587000D01*
G01Y1524000D02*
X4837700D01*
G01X4904700D02*
Y1602700D01*
X4893000Y1587000D01*
G01Y1524000D02*
X4916400D01*
G01X4727800Y2032000D02*
Y2110700D01*
X4752200D01*
X4760000Y2106800D01*
X4764800Y2101500D01*
X4766800Y2091000D01*
X4764800Y2080500D01*
X4759000Y2074000D01*
X4752200Y2070000D01*
X4727800D01*
G01X4752200D02*
X4766800Y2032000D01*
G01X4826000D02*
Y2110700D01*
X4814300Y2095000D01*
G01Y2032000D02*
X4837700D01*
G01X4883300Y2047700D02*
X4889100Y2038600D01*
X4896900Y2033300D01*
X4905700Y2032000D01*
X4913500Y2033300D01*
X4921200Y2039900D01*
X4926100Y2047700D01*
X4927100Y2055600D01*
X4925100Y2064800D01*
X4918300Y2071300D01*
X4911500Y2074000D01*
X4902800D01*
G01X4911500D02*
X4917400Y2077900D01*
X4922200Y2084500D01*
X4924200Y2092300D01*
X4922200Y2100200D01*
X4917400Y2106800D01*
X4908600Y2110700D01*
X4899800Y2109400D01*
X4891100Y2104100D01*
G01X4727800Y2540000D02*
Y2618700D01*
X4752200D01*
X4760000Y2614800D01*
X4764800Y2609500D01*
X4766800Y2599000D01*
X4764800Y2588500D01*
X4759000Y2582000D01*
X4752200Y2578000D01*
X4727800D01*
G01X4752200D02*
X4766800Y2540000D01*
G01X4826000D02*
Y2618700D01*
X4814300Y2603000D01*
G01Y2540000D02*
X4837700D01*
G01X4883300Y2551800D02*
X4889100Y2545200D01*
X4895900Y2541300D01*
X4904700Y2540000D01*
X4913500Y2542600D01*
X4920300Y2547900D01*
X4925100Y2557100D01*
X4926100Y2567500D01*
X4924200Y2578000D01*
X4919300Y2584600D01*
X4912500Y2589800D01*
X4905700Y2591200D01*
X4898900Y2589800D01*
X4890100Y2584600D01*
X4893000Y2618700D01*
X4919300D01*
G01X4727800Y3048000D02*
Y3126700D01*
X4752200D01*
X4760000Y3122800D01*
X4764800Y3117500D01*
X4766800Y3107000D01*
X4764800Y3096500D01*
X4759000Y3090000D01*
X4752200Y3086000D01*
X4727800D01*
G01X4752200D02*
X4766800Y3048000D01*
G01X4826000D02*
Y3126700D01*
X4814300Y3111000D01*
G01Y3048000D02*
X4837700D01*
G01X4904700D02*
X4911500Y3049300D01*
X4919300Y3053200D01*
X4924200Y3059800D01*
X4926100Y3069000D01*
X4924200Y3078200D01*
X4918300Y3086000D01*
X4909600Y3090000D01*
X4899800D01*
X4894000Y3092600D01*
X4889100Y3099200D01*
X4887200Y3108300D01*
X4890100Y3117500D01*
X4896900Y3124100D01*
X4904700Y3126700D01*
X4912500Y3124100D01*
X4919300Y3117500D01*
X4922200Y3108300D01*
X4920300Y3099200D01*
X4915400Y3092600D01*
X4909600Y3090000D01*
X4899800D01*
X4891100Y3086000D01*
X4885200Y3078200D01*
X4883300Y3069000D01*
X4885200Y3059800D01*
X4890100Y3053200D01*
X4897900Y3049300D01*
X4904700Y3048000D01*
G01X4711300Y5770900D02*
X4719300Y5758200D01*
X4729000Y5749700D01*
X4740200Y5745500D01*
X4753100Y5749700D01*
X4762800Y5758200D01*
X4772400Y5770900D01*
X4775600Y5787800D01*
Y5872500D01*
G01X4842400Y5851300D02*
X4852000Y5864000D01*
X4863300Y5870400D01*
X4876200Y5872500D01*
X4892300Y5868300D01*
X4903500Y5857700D01*
X4906700Y5845000D01*
X4905100Y5832300D01*
X4898700Y5821700D01*
X4866500Y5800500D01*
X4852000Y5785700D01*
X4842400Y5764500D01*
X4839200Y5745500D01*
X4906700D01*
G01X5021100Y4826000D02*
Y4904700D01*
X5045500D01*
X5053300Y4900800D01*
X5058100Y4895500D01*
X5060100Y4885000D01*
X5058100Y4874500D01*
X5052300Y4868000D01*
X5045500Y4864000D01*
X5021100D01*
G01X5045500D02*
X5060100Y4826000D01*
G01X5097900Y4841700D02*
X5103700Y4832600D01*
X5111500Y4827300D01*
X5120300Y4826000D01*
X5128100Y4827300D01*
X5135800Y4833900D01*
X5140700Y4841700D01*
X5141700Y4849600D01*
X5139700Y4858800D01*
X5132900Y4865300D01*
X5126100Y4868000D01*
X5117400D01*
G01X5126100D02*
X5132000Y4871900D01*
X5136800Y4878500D01*
X5138800Y4886300D01*
X5136800Y4894200D01*
X5132000Y4900800D01*
X5123200Y4904700D01*
X5114400Y4903400D01*
X5105700Y4898100D01*
G01X5021100Y4318000D02*
Y4396700D01*
X5045500D01*
X5053300Y4392800D01*
X5058100Y4387500D01*
X5060100Y4377000D01*
X5058100Y4366500D01*
X5052300Y4360000D01*
X5045500Y4356000D01*
X5021100D01*
G01X5045500D02*
X5060100Y4318000D01*
G01X5100800Y4350800D02*
X5107600Y4360000D01*
X5113500Y4365200D01*
X5121200Y4367800D01*
X5128100Y4365200D01*
X5132900Y4360000D01*
X5136800Y4352100D01*
X5137800Y4342900D01*
X5136800Y4335100D01*
X5132900Y4327200D01*
X5127100Y4320600D01*
X5120300Y4318000D01*
X5112500Y4320600D01*
X5105700Y4328500D01*
X5101800Y4340300D01*
X5100800Y4353400D01*
X5102800Y4370500D01*
X5105700Y4379600D01*
X5110500Y4388800D01*
X5117400Y4395400D01*
X5124200Y4396700D01*
X5131000Y4394100D01*
X5135800Y4387500D01*
G01X6037100Y6096000D02*
Y6174700D01*
X6061500D01*
X6069300Y6170800D01*
X6074100Y6165500D01*
X6076100Y6155000D01*
X6074100Y6144500D01*
X6068300Y6138000D01*
X6061500Y6134000D01*
X6037100D01*
G01X6061500D02*
X6076100Y6096000D01*
G01X6116800Y6161600D02*
X6122600Y6169500D01*
X6129500Y6173400D01*
X6137200Y6174700D01*
X6147000Y6172100D01*
X6153800Y6165500D01*
X6155700Y6157600D01*
X6154800Y6149800D01*
X6150900Y6143200D01*
X6131400Y6130100D01*
X6122600Y6120900D01*
X6116800Y6107800D01*
X6114900Y6096000D01*
X6155700D01*
G01X7013800Y1016000D02*
Y1094700D01*
X7038200D01*
X7046000Y1090800D01*
X7050800Y1085500D01*
X7052800Y1075000D01*
X7050800Y1064500D01*
X7045000Y1058000D01*
X7038200Y1054000D01*
X7013800D01*
G01X7038200D02*
X7052800Y1016000D01*
G01X7112000D02*
Y1094700D01*
X7100300Y1079000D01*
G01Y1016000D02*
X7123700D01*
G01X7172200Y1048800D02*
X7179000Y1058000D01*
X7184900Y1063200D01*
X7192600Y1065800D01*
X7199500Y1063200D01*
X7204300Y1058000D01*
X7208200Y1050100D01*
X7209200Y1040900D01*
X7208200Y1033100D01*
X7204300Y1025200D01*
X7198500Y1018600D01*
X7191700Y1016000D01*
X7183900Y1018600D01*
X7177100Y1026500D01*
X7173200Y1038300D01*
X7172200Y1051400D01*
X7174200Y1068500D01*
X7177100Y1077600D01*
X7181900Y1086800D01*
X7188800Y1093400D01*
X7195600Y1094700D01*
X7202400Y1092100D01*
X7207200Y1085500D01*
G01X6757900Y3175000D02*
Y3084000D01*
X6764300Y3064900D01*
X6777200Y3052200D01*
X6793200Y3048000D01*
X6809300Y3052200D01*
X6822200Y3064900D01*
X6828600Y3084000D01*
Y3175000D01*
G01X6942100Y3048000D02*
Y3175000D01*
X6882500Y3084000D01*
X6963000D01*
G01X7879400Y4318000D02*
Y4381500D01*
X7892900D01*
X7898400Y4378300D01*
X7902400Y4374100D01*
X7905800Y4367700D01*
X7908500Y4360300D01*
X7909200Y4349700D01*
X7908500Y4339200D01*
X7905800Y4331800D01*
X7902400Y4325400D01*
X7898400Y4321200D01*
X7892900Y4318000D01*
X7879400D01*
G01X7950100D02*
Y4381500D01*
X7942000Y4368800D01*
G01Y4318000D02*
X7958200D01*
G01X7509700Y5824200D02*
Y5733200D01*
X7516100Y5714100D01*
X7529000Y5701400D01*
X7545000Y5697200D01*
X7561100Y5701400D01*
X7574000Y5714100D01*
X7580400Y5733200D01*
Y5824200D01*
G01X7644000Y5803000D02*
X7653600Y5815700D01*
X7664900Y5822100D01*
X7677800Y5824200D01*
X7693900Y5820000D01*
X7705100Y5809400D01*
X7708300Y5796700D01*
X7706700Y5784000D01*
X7700300Y5773400D01*
X7668100Y5752200D01*
X7653600Y5737400D01*
X7644000Y5716200D01*
X7640800Y5697200D01*
X7708300D01*
G01X8029800Y2540000D02*
Y2618700D01*
X8054200D01*
X8062000Y2614800D01*
X8066800Y2609500D01*
X8068800Y2599000D01*
X8066800Y2588500D01*
X8061000Y2582000D01*
X8054200Y2578000D01*
X8029800D01*
G01X8054200D02*
X8068800Y2540000D01*
G01X8128000D02*
Y2618700D01*
X8116300Y2603000D01*
G01Y2540000D02*
X8139700D01*
G01X8206700Y2618700D02*
X8198900Y2616100D01*
X8193100Y2609500D01*
X8189200Y2601600D01*
X8186300Y2591200D01*
X8185300Y2579300D01*
X8186300Y2567500D01*
X8189200Y2557100D01*
X8193100Y2549200D01*
X8198900Y2542600D01*
X8206700Y2540000D01*
X8214500Y2542600D01*
X8220300Y2549200D01*
X8224200Y2557100D01*
X8227100Y2567500D01*
X8228100Y2579300D01*
X8227100Y2591200D01*
X8224200Y2601600D01*
X8220300Y2609500D01*
X8214500Y2616100D01*
X8206700Y2618700D01*
G01X8277400Y5956300D02*
Y6035000D01*
X8301800D01*
X8309600Y6031100D01*
X8314400Y6025800D01*
X8316400Y6015300D01*
X8314400Y6004800D01*
X8308600Y5998300D01*
X8301800Y5994300D01*
X8277400D01*
G01X8301800D02*
X8316400Y5956300D01*
G01X8387300D02*
Y6035000D01*
X8351300Y5978600D01*
X8399900D01*
G01X9339100Y2809700D02*
X9344000Y2801900D01*
X9349800Y2796600D01*
X9356700Y2794000D01*
X9364400Y2796600D01*
X9370300Y2801900D01*
X9376100Y2809700D01*
X9378100Y2820200D01*
Y2872700D01*
G01X9437300Y2794000D02*
Y2872700D01*
X9425600Y2857000D01*
G01Y2794000D02*
X9449000D01*
G01X8895400Y4318000D02*
Y4381500D01*
X8908900D01*
X8914400Y4378300D01*
X8918400Y4374100D01*
X8921800Y4367700D01*
X8924500Y4360300D01*
X8925200Y4349700D01*
X8924500Y4339200D01*
X8921800Y4331800D01*
X8918400Y4325400D01*
X8914400Y4321200D01*
X8908900Y4318000D01*
X8895400D01*
G01X8953200Y4370900D02*
X8957300Y4377300D01*
X8962000Y4380400D01*
X8967500Y4381500D01*
X8974200Y4379400D01*
X8979000Y4374100D01*
X8980300Y4367700D01*
X8979600Y4361400D01*
X8976900Y4356100D01*
X8963400Y4345500D01*
X8957300Y4338100D01*
X8953200Y4327500D01*
X8951900Y4318000D01*
X8980300D01*
G01X8831100Y5842000D02*
Y5920700D01*
X8855500D01*
X8863300Y5916800D01*
X8868100Y5911500D01*
X8870100Y5901000D01*
X8868100Y5890500D01*
X8862300Y5884000D01*
X8855500Y5880000D01*
X8831100D01*
G01X8855500D02*
X8870100Y5842000D01*
G01X8907900Y5853800D02*
X8913700Y5847200D01*
X8920500Y5843300D01*
X8929300Y5842000D01*
X8938100Y5844600D01*
X8944900Y5849900D01*
X8949700Y5859100D01*
X8950700Y5869500D01*
X8948800Y5880000D01*
X8943900Y5886600D01*
X8937100Y5891800D01*
X8930300Y5893200D01*
X8923500Y5891800D01*
X8914700Y5886600D01*
X8917600Y5920700D01*
X8943900D01*
M02*
