G04 ================== begin FILE IDENTIFICATION RECORD ==================*
G04 Layout Name:  MY_TEST731_2.brd*
G04 Film Name:    SolderB*
G04 File Format:  Gerber RS274X*
G04 File Origin:  Cadence Allegro 17.2-P019*
G04 Origin Date:  Wed Jul 31 17:20:14 2019*
G04 *
G04 Layer:  VIA CLASS/SOLDERMASK_BOTTOM*
G04 Layer:  PIN/SOLDERMASK_BOTTOM*
G04 Layer:  PACKAGE GEOMETRY/SOLDERMASK_BOTTOM*
G04 Layer:  BOARD GEOMETRY/SOLDERMASK_BOTTOM*
G04 *
G04 Offset:    (0.000 0.000)*
G04 Mirror:    No*
G04 Mode:      Positive*
G04 Rotation:  0*
G04 FullContactRelief:  No*
G04 UndefLineWidth:     0.000*
G04 ================== end FILE IDENTIFICATION RECORD ====================*
%FSLAX25Y25*MOMM*%
%IR0*IPPOS*OFA0.00000B0.00000*MIA0B0*SFA1.00000B1.00000*%
%ADD13C,2.032*%
%ADD14R,2.032X2.032*%
%ADD11C,1.905*%
%ADD10C,3.683*%
%ADD12R,1.905X1.905*%
%LPD*%
G75*
G54D10*
X500000Y500000D03*
Y6500000D03*
X9500000Y500000D03*
Y6500000D03*
G54D11*
X762000Y1524000D03*
Y1778000D03*
Y2032000D03*
Y2286000D03*
Y2540000D03*
Y2794000D03*
Y5334000D03*
X508000D03*
X1524000Y1524000D03*
Y1778000D03*
Y2032000D03*
Y2286000D03*
Y2540000D03*
Y2794000D03*
Y3048000D03*
X2286000Y4826000D03*
Y5080000D03*
Y5334000D03*
X3048000Y4826000D03*
Y5080000D03*
Y5334000D03*
Y5588000D03*
X4826000D03*
X5588000D03*
X5334000D03*
X5080000D03*
X7112000Y2032000D03*
X6858000D03*
X7112000Y2794000D03*
X6858000D03*
X6604000D03*
Y5080000D03*
Y5334000D03*
Y5588000D03*
X7366000Y2032000D03*
Y2794000D03*
Y5080000D03*
Y5334000D03*
Y5588000D03*
Y5842000D03*
X9144000Y2540000D03*
Y2794000D03*
G54D12*
X762000Y3048000D03*
X2286000Y5588000D03*
X6604000Y2032000D03*
Y5842000D03*
G54D13*
X508000Y4889500D03*
X1524000Y4064000D03*
Y4889500D03*
X2540000Y1778000D03*
Y1270000D03*
Y2286000D03*
Y2794000D03*
Y4064000D03*
X3556000Y1778000D03*
Y1270000D03*
Y2286000D03*
Y2794000D03*
X4000500Y5080000D03*
Y6096000D03*
X4318000Y1270000D03*
Y1778000D03*
Y2286000D03*
Y2794000D03*
X4572000Y4572000D03*
Y5080000D03*
X5334000Y1270000D03*
Y1778000D03*
Y2286000D03*
Y2794000D03*
X5588000Y4572000D03*
Y5080000D03*
Y6350000D03*
X6858000Y762000D03*
X6604000Y6350000D03*
X7874000Y762000D03*
X8382000Y1778000D03*
Y2794000D03*
X8128000Y4724400D03*
X8636000D03*
X8128000Y5334000D03*
X8636000D03*
X8128000Y6350000D03*
X8636000D03*
G54D14*
X8128000Y3810000D03*
X8636000D03*
M02*
