G04 ================== begin FILE IDENTIFICATION RECORD ==================*
G04 Layout Name:  MY_TEST731_2.brd*
G04 Film Name:    TOP*
G04 File Format:  Gerber RS274X*
G04 File Origin:  Cadence Allegro 17.2-P019*
G04 Origin Date:  Wed Jul 31 17:20:14 2019*
G04 *
G04 Layer:  BOARD GEOMETRY/DESIGN_OUTLINE*
G04 Layer:  ETCH/TOP*
G04 Layer:  PIN/TOP*
G04 Layer:  VIA CLASS/TOP*
G04 *
G04 Offset:    (0.000 0.000)*
G04 Mirror:    No*
G04 Mode:      Positive*
G04 Rotation:  0*
G04 FullContactRelief:  No*
G04 UndefLineWidth:     0.000*
G04 ================== end FILE IDENTIFICATION RECORD ====================*
%FSLAX25Y25*MOMM*%
%IR0*IPPOS*OFA0.00000B0.00000*MIA0B0*SFA1.00000B1.00000*%
%ADD11C,1.524*%
%ADD13C,1.651*%
%ADD12R,1.524X1.524*%
%ADD15C,1.397*%
%ADD14R,1.397X1.397*%
%ADD10C,.635*%
%ADD16C,1.*%
%ADD17C,.5*%
G75*
%LPD*%
G75*
G54D10*
X500000Y500000D03*
Y6500000D03*
X9500000Y500000D03*
Y6500000D03*
G54D11*
X762000Y1524000D03*
Y1778000D03*
Y2032000D03*
Y2286000D03*
Y2540000D03*
Y2794000D03*
Y5334000D03*
X508000D03*
X1524000Y1524000D03*
Y1778000D03*
Y2032000D03*
Y2286000D03*
Y2540000D03*
Y2794000D03*
Y3048000D03*
X2286000Y4826000D03*
Y5080000D03*
Y5334000D03*
X3048000Y4826000D03*
Y5080000D03*
Y5334000D03*
Y5588000D03*
X4826000D03*
X5588000D03*
X5334000D03*
X5080000D03*
X7112000Y2032000D03*
X6858000D03*
X7112000Y2794000D03*
X6858000D03*
X6604000D03*
Y5080000D03*
Y5334000D03*
Y5588000D03*
X7366000Y2032000D03*
Y2794000D03*
Y5080000D03*
Y5334000D03*
Y5588000D03*
Y5842000D03*
X9144000Y2540000D03*
Y2794000D03*
G54D12*
X762000Y3048000D03*
X2286000Y5588000D03*
X6604000Y2032000D03*
Y5842000D03*
G54D13*
X508000Y4889500D03*
X1524000Y4064000D03*
Y4889500D03*
X2540000Y1778000D03*
Y1270000D03*
Y2286000D03*
Y2794000D03*
Y4064000D03*
X3556000Y1778000D03*
Y1270000D03*
Y2286000D03*
Y2794000D03*
X4000500Y5080000D03*
Y6096000D03*
X4318000Y1270000D03*
Y1778000D03*
Y2286000D03*
Y2794000D03*
X4572000Y4572000D03*
Y5080000D03*
X5334000Y1270000D03*
Y1778000D03*
Y2286000D03*
Y2794000D03*
X5588000Y4572000D03*
Y5080000D03*
Y6350000D03*
X6858000Y762000D03*
X6604000Y6350000D03*
X7874000Y762000D03*
X8382000Y1778000D03*
Y2794000D03*
X8128000Y5334000D03*
X8636000D03*
X8128000Y6350000D03*
X8636000D03*
G54D14*
X8128000Y3810000D03*
X8636000D03*
G54D15*
X8128000Y4724400D03*
X8636000D03*
G54D16*
G01X762000Y1778000D02*
Y1524000D01*
G01Y2794000D02*
Y2540000D01*
G01Y2794000D02*
X571500D01*
X508000Y2857500D01*
Y4889500D01*
G01Y5334000D02*
Y4889500D01*
G01X4572000Y4572000D02*
X4469100Y4469100D01*
X1536400D01*
X1333500Y4672000D01*
Y4789500D01*
X1233500Y4889500D01*
X508000D01*
G01X5588000Y5588000D02*
Y5424500D01*
X5397500Y5234000D01*
Y5022000D01*
X5297500Y4922000D01*
X4568000D01*
X4281500Y4635500D01*
X2476500D01*
X2286000Y4826000D01*
G01X4826000Y5588000D02*
X3302000D01*
X3048000Y5334000D01*
G01X7366000Y5588000D02*
X7520000D01*
X7620000Y5688000D01*
Y5996000D01*
X7520000Y6096000D01*
X4926000D01*
X4826000Y5996000D01*
Y5588000D01*
G01X5334000Y2794000D02*
Y3583000D01*
X5434000Y3683000D01*
X8001000D01*
X8128000Y3810000D01*
G01X6604000Y5080000D02*
X6540500D01*
G01X8128000Y3810000D02*
X8636000D01*
G54D17*
G01X1524000Y2540000D02*
X1383500D01*
X1333500Y2590000D01*
Y2998000D01*
X1283500Y3048000D01*
X762000D01*
G01Y5334000D02*
X2286000D01*
G01X1524000Y1524000D02*
X2490000D01*
X2540000Y1474000D01*
Y1270000D01*
G01X1524000Y1778000D02*
X2540000D01*
G01X1524000Y2540000D02*
X2490000D01*
X2540000Y2590000D01*
Y2794000D01*
G01X1524000Y2286000D02*
X2540000D01*
G01X8636000Y4724400D02*
Y4445000D01*
X8572500Y4381500D01*
X5270500D01*
X5207000Y4318000D01*
Y3098000D01*
X5157000Y3048000D01*
X1524000D01*
G01X2286000Y5080000D02*
X1764500D01*
X1714500Y5030000D01*
Y4889500D01*
X1524000D01*
G01X4000500Y6096000D02*
X2921000D01*
X2857500Y6032500D01*
Y5384000D01*
X2807500Y5334000D01*
X2286000D01*
G01X3048000Y5080000D02*
X4000500D01*
G01X3556000Y1270000D02*
X4318000D01*
G01X3556000Y1778000D02*
X4318000D01*
G01X3556000Y2794000D02*
X4318000D01*
G01X4000500Y5080000D02*
X4572000D01*
G01X5334000Y1778000D02*
X5193500D01*
X5143500Y1728000D01*
Y1320000D01*
X5093500Y1270000D01*
X4318000D01*
G01X5334000Y2286000D02*
X5130000D01*
X5080000Y2236000D01*
Y1828000D01*
X5030000Y1778000D01*
X4318000D01*
G01X7112000Y2032000D02*
Y2109000D01*
X7062000Y2159000D01*
X6463500D01*
X6413500Y2109000D01*
Y1320000D01*
X6363500Y1270000D01*
X5334000D01*
G01X6604000Y5334000D02*
X5955500D01*
X5905500Y5284000D01*
Y4622000D01*
X5855500Y4572000D01*
X5588000D01*
G01X6604000Y5588000D02*
X5828500D01*
X5778500Y5538000D01*
Y5130000D01*
X5728500Y5080000D01*
X5588000D01*
G01X6858000Y2032000D02*
Y1905000D01*
X6985000Y1778000D01*
X8382000D01*
G01Y2794000D02*
Y2934500D01*
X8332000Y2984500D01*
X7162000D01*
X7112000Y2934500D01*
Y2794000D01*
G01X8128000Y6350000D02*
X6604000D01*
G01X9144000Y2794000D02*
X8382000D01*
G01X8128000Y5334000D02*
X8636000D01*
M02*
